<?xml version="1.0" encoding="utf-8"?>
<!-- Generator: Adobe Illustrator 19.1.0, SVG Export Plug-In . SVG Version: 6.00 Build 0)  -->
<svg version="1.1" id="Layer_1" xmlns="http://www.w3.org/2000/svg" xmlns:xlink="http://www.w3.org/1999/xlink" x="0px" y="0px"
	 viewBox="0 0 293.9 42.3" style="enable-background:new 0 0 293.9 42.3;" xml:space="preserve">
<style type="text/css">
	.st0{fill:#203B90;}
</style>
<g>
	<path d="M74.2,32.9h-2.8V18.3H69v-2.5h2.3v-2.3c0-3.4,1.7-5.4,4.7-5.4c0.1,0,0.5,0,0.8,0v2.5c-2,0.2-2.6,0.8-2.7,2.8v2.3h2.7v2.5
		h-2.7V32.9z"/>
	<path d="M96.2,24.4c0,5-3.9,8.9-8.8,8.9c-5.1,0-8.6-3.7-8.6-9c0-5.3,3.6-8.9,8.8-8.9C92.6,15.4,96.2,19.1,96.2,24.4z M81.7,24.4
		c0,3.8,2.3,6.3,5.8,6.3c3.4,0,5.8-2.6,5.8-6.3c0-3.8-2.3-6.4-5.8-6.4C84.1,18,81.7,20.5,81.7,24.4z"/>
	<path d="M102.8,15.8v2.9c0.5-1.2,0.9-1.7,1.6-2.3c0.9-0.7,2-1,3.3-1h0.7v2.9c-0.3,0-0.6,0-0.8,0c-1.5,0-2.9,0.7-3.7,2
		c-0.7,1.1-1,2.1-1,4v8.7H100V15.8H102.8z"/>
	<path d="M114.3,15.8v2.4c1.3-2,2.7-2.8,4.9-2.8c2.3,0,3.8,1,4.6,3.1c1.3-2.2,2.9-3.1,5.4-3.1c2,0,3.5,0.6,4.3,1.8
		c0.8,1.1,1,2,1,4.8v10.9h-2.8V22.6c0-2.1-0.1-2.6-0.5-3.3c-0.5-0.9-1.6-1.4-3-1.4c-2.5,0-3.9,1.7-3.9,4.7v10.3h-2.8V22.7
		c0-1.7-0.1-2.5-0.6-3.3c-0.5-1-1.5-1.5-2.8-1.5c-2.5,0-4,1.8-4,4.8v10.2h-2.8V15.8H114.3z"/>
	<path d="M143.7,32.9h-1.9V17.6h-2.6v-1.7h2.6v-3c0-1.6,0.3-2.6,1.1-3.5c0.7-0.8,1.9-1.3,3-1.3c0.1,0,0.4,0,0.7,0v1.6
		c-2.3,0.3-2.8,0.9-2.9,3.1v3h2.9v1.7h-2.9V32.9z"/>
	<path d="M163.5,18.5c1.3,1.6,1.9,3.4,1.9,5.8c0,5-3.7,8.8-8.5,8.8c-2.5,0-4.9-1.1-6.5-3c-1.2-1.4-1.9-3.6-1.9-5.9
		c0-2.8,0.8-4.9,2.5-6.5c1.6-1.5,3.7-2.3,5.9-2.3C159.6,15.5,161.9,16.6,163.5,18.5z M150.6,24.4c0,4.2,2.6,7.1,6.5,7.1
		c3.7,0,6.5-3,6.5-7.1c0-2.3-0.6-4-1.9-5.3c-1.2-1.1-2.9-1.8-4.5-1.8C153.2,17.3,150.6,20.1,150.6,24.4z"/>
	<path d="M171.9,15.8v3.1c0.6-1.2,0.9-1.7,1.6-2.3c0.9-0.7,2.2-1.1,3.5-1.1h0.7v1.8h-0.6c-3.2,0-5.3,2.8-5.2,6.6v8.9h-1.9V15.8
		H171.9z"/>
	<path d="M186.5,29.4c0,0.9,0.3,1,1.3,1h1.3v2.4h-2.6c-2,0-2.8-0.8-2.8-2.7V18.3h-2.4v-2.5h2.4v-5.4h2.8v5.4h2.6v2.5h-2.6V29.4z"/>
	<path d="M195.8,18.2c1.6-1.9,3.1-2.8,5.2-2.8c1.5,0,3,0.6,4,1.6c0.9,0.9,1.3,2.3,1.3,4.5v11.5h-2.8V21.5c0-2.3-1.2-3.6-3.2-3.6
		c-1.3,0-2.4,0.5-3.3,1.5c-0.9,1-1.1,1.8-1.1,3.5v10H193V8.2h2.8V18.2z"/>
	<path d="M227.4,24.4c0,5-3.9,8.9-8.8,8.9c-5.1,0-8.6-3.7-8.6-9c0-5.3,3.6-8.9,8.8-8.9C223.8,15.4,227.4,19.1,227.4,24.4z
		 M212.9,24.4c0,3.8,2.3,6.3,5.8,6.3c3.4,0,5.8-2.6,5.8-6.3c0-3.8-2.3-6.4-5.8-6.4C215.3,18,212.9,20.5,212.9,24.4z"/>
	<path d="M244.5,15.8v10.9c0,2.3-0.4,3.6-1.7,4.8c-1.3,1.2-3,1.8-4.9,1.8s-3.7-0.7-4.9-1.8c-1.2-1.1-1.7-2.7-1.7-4.8V15.8h2.8v10.9
		c0,2.4,1.6,4.1,3.8,4.1c1.2,0,2.3-0.5,3-1.3c0.6-0.7,0.7-1.4,0.7-2.7V15.8H244.5z"/>
	<path d="M261.8,15.8h2.8V33c0,2.9-0.7,4.8-2.3,6.3c-1.5,1.5-3.7,2.3-6.3,2.3c-3.2,0-5.7-1-7.6-3.1l1.9-1.9c0.8,0.8,1.2,1.2,1.6,1.5
		c1,0.6,2.6,1,4,1c1.8,0,3.5-0.6,4.5-1.7c0.9-0.9,1.3-2.3,1.3-4.1v-3.6c-1.7,2.5-3.6,3.7-6.3,3.7c-4.5,0-7.9-3.8-7.9-8.9
		c0-2.7,1-5.4,2.7-7c1.4-1.3,3.2-2,5.4-2c2.6,0,4.3,1,6.1,3.3V15.8z M250.5,24.3c0,3.7,2.4,6.4,5.6,6.4c1.6,0,3.2-0.8,4.3-2.1
		c0.7-0.9,1.2-2.5,1.2-4.2c0-2.2-0.3-3.4-1.3-4.5c-1-1.2-2.6-1.9-4.2-1.9C252.9,18,250.5,20.6,250.5,24.3z"/>
	<path d="M272.3,18.2c1.6-1.9,3.1-2.8,5.2-2.8c1.5,0,3,0.6,4,1.6c0.9,0.9,1.3,2.3,1.3,4.5v11.5h-2.8V21.5c0-2.3-1.2-3.6-3.2-3.6
		c-1.3,0-2.4,0.5-3.3,1.5c-0.9,1-1.1,1.8-1.1,3.5v10h-2.8V8.2h2.8V18.2z"/>
	<path d="M291.3,29.4c0,0.9,0.3,1,1.3,1h1.3v2.4h-2.6c-2,0-2.8-0.8-2.8-2.7V18.3h-2.4v-2.5h2.4v-5.4h2.8v5.4h2.6v2.5h-2.6V29.4z"/>
</g>
<path class="st0" d="M51,18.4c0-3.1-1.6-6-4.1-7.7c-2.3-5.2-7.3-8.5-13-8.5c0,0-0.1,0-0.1,0c-1.5,0-2.9,0.2-4.3,0.7
	C27,1,24,0,20.9,0c0,0-0.1,0-0.1,0c-5.1,0-9.7,2.7-12.2,7.1c-4.7,0.5-8.5,4.5-8.4,9.4c0,1.3,0.3,2.6,0.8,3.8c-0.7,1.3-1,2.8-1,4.2
	c0,5.1,4.2,9.3,9.4,9.3c0,0,0,0,0.1,0c1.6,0,3.1-0.4,4.5-1.2c1.6,2.5,4.5,4.1,7.5,4.1c4.9,0,8.9-4,8.9-8.9c0-1.5-0.4-3-1.1-4.3
	L29,22.8l-11.4,0c0,0,0,0,0,0c-2.2,0-3.9-1.8-4-3.9c0-1.1,0.4-2.1,1.1-2.8c0.7-0.8,1.7-1.2,2.8-1.2l14.1,0l3.6,2.3v3.3l-3.4,2.2
	c-0.5,0.3-0.7,1.1-0.3,1.6c0.2,0.3,0.6,0.5,1,0.5c0.2,0,0.4-0.1,0.6-0.2l4-2.6l3.5-2.3c0.3-0.2,0.5-0.6,0.5-1c0-0.4-0.2-0.8-0.5-1
	l-3.2-2l-4.9-3.1l-0.3-0.2l-0.3,0l-14.4,0c-1.7,0-3.3,0.7-4.4,1.9c-1.2,1.2-1.8,2.8-1.8,4.5c0,3.5,2.8,6.3,6.3,6.3c0,0,0,0,0,0l10,0
	c0.3,0.8,0.5,1.7,0.5,2.6c0,3.6-3,6.6-6.6,6.6c-2.6,0-5-1.5-6-3.9L14.8,29l-1.2,1l0,0c-1.2,0.9-2.7,1.4-4.2,1.4c0,0,0,0,0,0
	c-3.9,0-7-3.1-7-7c0-1.3,0.3-2.5,1-3.6l0.3-0.6l-0.3-0.6c-0.5-1-0.8-2.1-0.8-3.3c0-3.8,3-7,6.8-7.1l0.7,0l0.3-0.6
	c2-3.9,6-6.4,10.5-6.4c2.8,0,5.6,1,7.7,2.8l0.5,0.4l0.6-0.2c1.3-0.5,2.7-0.7,4.1-0.8c4.9,0,9.2,2.9,11.1,7.4l0.1,0.4l0.3,0.2
	c2.1,1.3,3.3,3.5,3.4,5.9c0,2.4-1.2,4.6-3.2,5.9l-0.6,0.4l0.1,0.7c0.1,0.4,0.1,0.8,0.1,1.1c0,3.5-2.5,6.5-6,7l-1,0.1l0,1l0,4.9
	c-2.8-1-5-2.7-6.7-5.5c-0.3-0.5-1.1-0.7-1.6-0.4c-0.5,0.3-0.7,1.1-0.4,1.6c2.4,3.7,5.5,6,9.6,6.9c0,0,0,0,0,0c0,0,0,0,0,0
	c0.1,0,0.1,0,0.2,0c0,0,0,0,0,0c0,0,0,0,0,0c0,0,0.1,0,0.1,0c0,0,0.1,0,0.1,0c0.6-0.1,1-0.6,1-1.1l0-5.5c4.1-1.1,7-4.8,7-9.1
	c0-0.2,0-0.5,0-0.7C49.7,24.1,51,21.4,51,18.4z"/>
</svg>
