<?xml version="1.0" encoding="utf-8"?>
<!-- Generator: Adobe Illustrator 19.1.0, SVG Export Plug-In . SVG Version: 6.00 Build 0)  -->
<svg version="1.1" id="Layer_1" xmlns="http://www.w3.org/2000/svg" xmlns:xlink="http://www.w3.org/1999/xlink" x="0px" y="0px"
	 viewBox="0 0 1280 583.4" style="enable-background:new 0 0 1280 583.4;" xml:space="preserve">
<style type="text/css">
	.st0{fill:#F8AA2D;}
	.st1{fill:#3B6DB4;}
	.st2{fill:#66B32E;}
	.st3{fill:#FFFFFF;}
	.st4{fill:#50BDC3;}
	.st5{fill:#314697;}
	.st6{fill:none;stroke:#FFFFFF;stroke-width:10.4679;stroke-miterlimit:10;}
	.st7{fill:none;stroke:#000000;stroke-width:0.7921;stroke-miterlimit:10;}
	.st8{fill-opacity:0.1;}
	.st9{fill:#212121;}
	.st10{fill:#525251;}
	.st11{fill:#78467B;}
	.st12{fill:none;stroke:#FFFFFF;stroke-width:8.367;stroke-miterlimit:10;}
	.st13{fill:none;stroke:#FFFFFF;stroke-width:9;stroke-miterlimit:10;}
	.st14{fill:none;stroke:#FFFFFF;stroke-width:7;stroke-miterlimit:10;}
</style>
<rect class="st0" width="1280" height="583.4"/>
<path d="M937.6,350.1l-63.7,22.4c-22,7.8-38.2,26.7-42.5,49.6l-9.2,48.7l-21.9,140l472.3-5.2V488.6c0-0.8,0-37-9.9-49.5v0
	c-24.5-24.9-53.9-44.6-86.4-57.6l-50.2-20.2c0,0-27.1-9-34.2-45.8l-25.2,49.7l-40.7,14.5l-68.6,6.9L942,370.3L937.6,350.1z"/>
<path class="st1" d="M1141.5,165.6c0,0,10.7,87.4-25.3,118.5c0,0-13.5,15.5-23.4,46.1h-64.6l-6.7-110.4v-25l95.2-29.3H1141.5z"/>
<path class="st3" d="M916.2,263.3c1.8,6.2,5.4,11.2,0.8,23.9c-4.7,12.7-19.8,29-13.5,34c6.3,5,26.8,5.4,29.2,5c0,0-8.1,1.1-10.3,6.7
	c-0.6,1.5,2.7,5.1,5.1,5.5c0,0-2.2,2.5-1,5.5c0.6,1.6,3.5,4,6.3,2.8c0,0,5.5,21.2,9.5,25.2c3.5,3.5,8.6,6.4,19.6,5.6
	c4.5-0.3,12.2-1.2,16.6-2c3.9-0.6,9.8-0.7,12.1,4.3c3,6.4,5.8,11.9,5.8,11.9s65-11.9,81-32.6s17.6-25.1,18-70.4c0,0,3.2-11,3.5-24
	c0.3-13-8.7-19.7-16.3-16.3c-7.7,3.3-23.5,9.1-24.8,38.8l-18.7,10.3c0,0,20.7-50.3-32.1-113.9c0,0-33.5,9.7-53.9,8
	c-20.3-1.7-43.4-9.9-46.7-11.7c-4.7-2.5-4.7-1.8-4.7-1.8s4.1,29.7,3.1,41.2c-0.5,6.1-0.2,12.2,2.8,17.8
	C907.5,237,913.7,254.2,916.2,263.3z"/>
<g>
	<path class="st4" d="M931.4,326.4h-20.5c-5.1,0-9.2-4.2-9.2-9.2v0c0-6.9,5.7-12.6,12.6-12.6h17.2c5.1,0,9.2,4.2,9.2,9.2v3.3
		C940.6,322.2,936.4,326.4,931.4,326.4z"/>
	<polygon class="st4" points="910.4,245 901.6,315.6 927.4,306.8 923.9,245 	"/>
</g>
<path class="st5" d="M929.5,346.7l69.8-31.3l-29-149.9l60,8.2l27.3,113.4c0,0,11.1,50-37.4,92c-15.6,13.5-54.4,27.3-88.7,17.3
	L929.5,346.7z"/>
<circle class="st5" cx="931.5" cy="336.8" r="10.4"/>
<path class="st5" d="M939.6,330.2c0,0,5.9,8.7,18.7,3.6c10.8-4.3,28.6,19.8,28.6,19.8l-39.7,9.7l-14.6-19.7L939.6,330.2z"/>
<path class="st1" d="M1095.2,288.7c0,0-3.9,8.2-3.9,14c0,4,3.2,21.2,1.5,27.4c-1.7,6.3,10.2-32.6,10.2-32.6L1095.2,288.7z"/>
<circle class="st11" cx="959.8" cy="288.7" r="17.4"/>
<path class="st3" d="M1072.9,164.8c3.2,1.7,4.4,3.2,4.7,3.7c-0.4,1-3.6,4.9-14.8,8.7c-11,3.8-25.5,6.1-40.9,6.5
	c-1.9,0.1-3.7,0.1-5.6,0.1c-14.2,0-27.4-1.7-37.4-4.7c-10-3-13.1-6.4-13.5-7.3c0.4-1,3.6-4.9,14.8-8.7l-1.8-7.6
	c-12.9,4.3-20.9,10.2-20.8,16.5c0.3,11.1,26.1,19.5,58.6,19.5c1.9,0,3.8,0,5.8-0.1c35.2-1.1,63.5-11.5,63.2-23.2
	c-0.1-3.6-2.9-7-7.8-9.8L1072.9,164.8z"/>
<g>
	<path class="st1" d="M1140.4,226.5c-0.7,4.5-1.5,9-2.6,13.4C1139.2,232.7,1140.2,227.8,1140.4,226.5z"/>
	
		<ellipse transform="matrix(0.9995 -3.005689e-02 3.005689e-02 0.9995 -4.6546 30.7774)" class="st0" cx="1021.4" cy="170.2" rx="116.1" ry="38.8"/>
	
		<ellipse transform="matrix(0.9995 -3.005689e-02 3.005689e-02 0.9995 -4.6546 30.7774)" class="st12" cx="1021.4" cy="170.2" rx="116.1" ry="38.8"/>
	<path class="st3" d="M1026.6,156.6L1026.6,156.6c14.1,0,27.4,1.7,37.4,4.7c10,3,13.1,6.4,13.5,7.3c-0.4,1-3.6,4.9-14.8,8.7
		c-11,3.8-25.5,6.1-40.9,6.5c-1.9,0.1-3.7,0.1-5.6,0.1c-14.2,0-27.4-1.7-37.4-4.7c-10-3-13.1-6.4-13.5-7.3c0.4-1,3.6-4.9,14.8-8.7
		c11-3.8,25.5-6.1,40.9-6.5C1022.9,156.6,1024.7,156.6,1026.6,156.6L1026.6,156.6 M1026.6,148.8c-1.9,0-3.8,0-5.8,0.1
		c-35.2,1.1-63.5,11.5-63.2,23.2c0.3,11.1,26.1,17.9,58.6,17.9c1.9,0,3.8,0,5.8-0.1c35.2-1.1,63.5-9.9,63.2-21.6
		C1084.9,157.2,1059.1,148.8,1026.6,148.8L1026.6,148.8z"/>
	<path class="st3" d="M1028.9,139.1c-2.8,0-5.6,0-8.4,0.1c-51.2,1.5-92.4,16.7-91.9,33.8c0.5,16.2,38,28.3,85.3,28.3
		c2.8,0,5.6,0,8.4-0.1c15.7-0.5,30.5-2.2,43.4-4.9l-4.2-3.6c-11.5,2.1-24.2,3.4-37.4,3.8c-2.7,0.1-5.5,0.1-8.2,0.1
		c-22.3,0-43.8-3.1-59-8.1c-15-4.9-21.5-12.3-21.6-15.7c-0.1-2.7,2.8-5.5,4.6-7c3.9-3.3,10-6.5,17.6-9.3
		c16.7-6.1,39.1-9.9,63.2-10.6c2.8-0.1,5.5-0.1,8.2-0.1c22.3,0,42.9,2.8,58.1,7.8c15,4.9,20.4,10.7,20.5,14.1c0.1,2.7-2.8,5.5-4.6,7
		c-3.1,2.6-7.5,5.1-12.9,7.4l6.9,4.2c11-5.5,17.5-12,17.3-18.8C1113.7,151.3,1076.3,139.1,1028.9,139.1z"/>
	<line class="st13" x1="1026.5" y1="187.3" x2="1028.4" y2="198"/>
	<line class="st12" x1="910.6" y1="183.8" x2="936.6" y2="179.8"/>
	<polygon class="st0" points="972.9,188.5 996.4,192.7 993.9,203.8 963.4,198 	"/>
	<line class="st14" x1="1080.9" y1="147.8" x2="1065.6" y2="156.8"/>
</g>
<g>
	<g>
		<path d="M1003.6,137.8l-6.8,2.4c-4.1,1.4-7.1,4.9-7.9,9.2l-1.7,9l-3.6,23.2l40.3,3.8l35.2-3.9l6.9-3.6l-2.2-5.3
			c-3.2-8.6-7.3-18-12.3-24.4c-1.8-2.3-3.7-4.2-5.9-5.1l-9.3-3.7c0,0-4.8-2.9-6.1-9.7l-4.6,9.2l-7.5,2.7l-7.1-2.1l-8.4,0.3
			L1003.6,137.8z"/>
		<path class="st1" d="M1022.3,125.6l-0.2,0.1c-0.4,2.2-0.9,4.3-1.6,6.2h-1.9l-2.5-16.3c1.1,0.1,2.1,0.4,3,1.1
			C1022,118.7,1022.5,122.3,1022.3,125.6z"/>
		<path class="st1" d="M1039.4,113.3c-0.1,0.8-0.3,1.7-0.5,2.5C1039.1,114.4,1039.3,113.5,1039.4,113.3z"/>
		<path class="st3" d="M1000.3,134c0,0,0,0.5,0,0.6c0,0-0.1-0.3,0.1,0.3c0.1,0.3,0.4,0.9,0.7,1c0,0,0.9,3.5,1.6,4.3
			c0.6,0.6,1.6,1.2,3.6,1c0.8-0.1,2.3-0.2,3.1-0.4c0.7-0.1,1.8-0.1,2.2,0.8c0.5,1.2,1.8,4.5,1.8,4.5s11.3-4.5,14.2-8.3
			s3.3-4.6,3.3-13c0,0,0.6-2,0.6-4.4c0.1-2.4-1.6-3.6-3-3c-1.4,0.6-4.3,1.7-4.6,7.2l5.8-2.7c0,0-6.6-7.1-18.7-14.4
			c0,0-2.6-0.2-6.4-0.5c-3.8-0.3-8-1.8-8.6-2.2c-0.9-0.5-0.9-0.3-0.9-0.3s0.8,5.5,0.6,7.6c-0.1,1.1,1.6,1.6,2.2,2.7
			c0,0-0.5,3.8-0.1,5.5c0.3,1.1,1,2.1,0.1,4.4c-0.9,2.3-3.7,5.4-2.5,6.3c1.2,0.9,6-0.4,5.8,0.6c0,0,0,0.9-1.3,1.2"/>
		<path class="st1" d="M1031,124.8c0,0-0.7,1.5-0.7,2.6c0,0.7,0.6,3.9,0.3,5.1s1.9-6,1.9-6L1031,124.8z"/>
		<path class="st3" d="M1001.2,136.1c-1.2-0.8-0.9-1.8-0.9-1.8c-0.7-0.8-0.4-1.6-0.4-1.6s0.3-0.7,0.4-1.6c0-0.8,1.8-0.4,1.8-0.4
			l1.5,2.2l-1.5,3.2L1001.2,136.1z"/>
		<g>
			<path class="st11" d="M1000.8,131.7H997c-0.9,0-1.7-0.8-1.7-1.7l0,0c0-1.3,1-2.3,2.3-2.3h3.2c0.9,0,1.7,0.8,1.7,1.7v0.6
				C1002.5,130.9,1001.7,131.7,1000.8,131.7z"/>
			<polygon class="st11" points="997.2,114.6 995.3,129.7 1000,128.1 999.4,116.7 			"/>
		</g>
		<polygon class="st1" points="1025.3,116.7 1023.2,120.4 1023.2,127.2 1025.7,127.7 1034.9,120.6 1034.1,115.9 1029.4,114.2 		"/>
		<path class="st1" d="M1037.2,102.5h-4.6l-13.9,5l-23.5-4c0,0-1.9,3.6-1.1,10.6c0,0,0,0,0,0c0.1,0.7,0.2,1.5,0.3,2.3
			c0,0,4.3,3.1,15.6,1.8c0.2,0,0.5-0.1,0.7-0.1c0.3-0.1,0.6-0.1,0.9-0.2l0,0c0,0,4.7-0.9,7,0.6c4.3,2.8,3.5,7,3.5,7
			c-0.4,2.2-0.9,4.3-1.6,6.2c-4.5,12.3-14.9,19.1-14.9,19.1c1.2,0.4,2.4,0.7,3.5,0.9h0c11.8,2.6,21.1,0.1,26.4-4.9
			c4.6-4.3,3.8-10.2,2-16.5c-1.4-4.8,2.3-10.5,2.9-14.3l0.4-3C1041.7,107.4,1037.2,102.5,1037.2,102.5z"/>
		<circle class="st4" cx="1008.4" cy="127.8" r="3.6"/>
	</g>
	<path class="st1" d="M995.3,103.5c0,0,6-9.5,20.8-9.5c11.3,0,18.5,3.7,21.1,8.5c3.1,5.5-4.8,9.6-4.8,9.6l-20.4,1.1l-12.2-2.8
		L995.3,103.5z"/>
</g>
<path class="st3" d="M1072.8,164.9c3.2,1.7,4.4,3.2,4.7,3.7c-0.4,1-3.6,4.9-14.8,8.7c-11,3.8-25.5,6.1-40.9,6.5
	c-1.9,0.1-3.7,0.1-5.6,0.1c-14.2,0-27.4-1.7-37.4-4.7c-10-3-13.1-6.4-13.5-7.3c0.4-1,3.6-4.9,14.8-8.7l-1.8-7.6
	c-12.9,4.3-20.9,10.2-20.8,16.5c0.3,11.1,26.2,17.7,58.8,17.7c1.9,0,3.8,0,5.8-0.1c35.2-1.1,63.4-9.7,63-21.5
	c-0.1-3.6-2.9-7-7.8-9.8L1072.8,164.9z"/>
<polygon class="st0" points="954.7,165.1 977,166.1 975.7,173.8 954.7,179.6 "/>
</svg>
