<?xml version="1.0" encoding="utf-8"?>
<!-- Generator: Adobe Illustrator 19.2.0, SVG Export Plug-In . SVG Version: 6.00 Build 0)  -->
<svg version="1.1" xmlns="http://www.w3.org/2000/svg" xmlns:xlink="http://www.w3.org/1999/xlink" x="0px" y="0px"
	 viewBox="0 0 1921.8 819.4" style="enable-background:new 0 0 1921.8 819.4;" xml:space="preserve">
<style type="text/css">
	.st0{fill:#FFFFFF;}
	.st1{fill:#203B90;}
	.st2{fill:none;}
	.st3{fill:#E5007E;}
	.st4{font-family:'FranklinGothic-Heavy';}
	.st5{font-size:145.4704px;}
	.st6{fill:none;stroke:#1D1D1B;stroke-miterlimit:10;}
	.st7{fill:#1D1D1B;}
	.st8{font-family:'HurufMiranti';}
	.st9{font-size:96.5271px;}
	.st10{clip-path:url(#SVGID_2_);}
</style>
<g id="Layer_1">
</g>
<g id="guides">
	<rect y="-10.5" class="st0" width="1944.5" height="468.4"/>
	<rect x="-28.2" y="457.9" class="st1" width="1978.6" height="370.5"/>
	<rect x="153.4" y="361.2" class="st2" width="1614.7" height="116.4"/>
	<text transform="matrix(1 0 0 1 708.8376 458.1909)" class="st3 st4 st5">FAKE IT</text>
	<line class="st6" x1="-22.2" y1="457.9" x2="1944.5" y2="457.9"/>
	<rect x="153.3" y="395.5" class="st2" width="1615.2" height="91.8"/>
	<text transform="matrix(1 0 0 1 722.0925 462.8042)" class="st7 st8 st9">until you make it</text>
	<g>
		<g>
			<path class="st6" d="M777.2,360.7h-44.7v-25.6c0-12.3,10.1-22.4,22.4-22.4l0,0c12.3,0,22.4,10.1,22.4,22.4V360.7z"/>
			<circle class="st6" cx="754.8" cy="335.1" r="19.4"/>
			<g>
				<path class="st6" d="M771.3,324.6c-6.8,6.8-11.4,2.2-18.2,9c-6.8,6.8-2.2,11.4-9,18.2"/>
			</g>
			<line class="st6" x1="754.1" y1="312.7" x2="754.1" y2="303.6"/>
			<circle class="st6" cx="754.1" cy="306.6" r="1.2"/>
		</g>
		<g>
			<g>
				<path class="st6" d="M847.4,168.1c0.9-1,1.4-2.2,1.4-3.6c0-2.9-2.4-5.3-5.3-5.3c-2.9,0-5.3,2.4-5.3,5.3c0,1.8,0.9,3.5,2.4,4.4
					l1.6,0.8"/>
				<path class="st6" d="M840.8,186h-26.5c-3,0-3.8-4.1-1.1-5.2l27.5-11.7l27.5,11.7c2.7,1.2,1.9,5.2-1.1,5.2H840.8z"/>
			</g>
			<path class="st6" d="M816.7,238.1c0-2-1.6-3.6-3.6-3.6h-3.4h-4.4h-10.6v15.1c0,4.2,3.4,7.5,7.5,7.5l0,0c4.2,0,7.5-3.4,7.5-7.5
				v-7.9h3.4C815.1,241.7,816.7,240.1,816.7,238.1L816.7,238.1z"/>
			<rect x="794.7" y="201.2" class="st6" width="15.4" height="33.3"/>
			
				<rect x="806.8" y="189.3" transform="matrix(4.567261e-11 1 -1 4.567261e-11 1008.0593 -620.8143)" class="st6" width="15.2" height="8.7"/>
			<path class="st6" d="M810.1,201.2l-15.4,0c0-8.4,6.8-15.2,15.2-15.2h0.6"/>
			<path class="st6" d="M865.4,238.1c0-2,1.6-3.6,3.6-3.6h3.4h4.4h10.6v15.1c0,4.2-3.4,7.5-7.5,7.5l0,0c-4.2,0-7.5-3.4-7.5-7.5v-7.9
				H869C867,241.7,865.4,240.1,865.4,238.1L865.4,238.1z"/>
			
				<rect x="872" y="201.2" transform="matrix(-1 -4.479984e-11 4.479984e-11 -1 1759.4496 435.6822)" class="st6" width="15.4" height="33.3"/>
			
				<rect x="860.1" y="189.3" transform="matrix(-9.050645e-11 1 -1 -9.050645e-11 1061.2804 -674.0355)" class="st6" width="15.2" height="8.7"/>
			<path class="st6" d="M872,201.2l15.4,0c0-8.4-6.8-15.2-15.2-15.2h-0.6"/>
			<path class="st6" d="M863.3,186.2v132.2c0,0,0,4,2,5.9"/>
			<polyline class="st6" points="818.8,317.2 818.8,186 863.3,186 			"/>
			<path class="st6" d="M858.6,317.8l7.5,7.5c4.6,4.6,4.6,12,0,16.5l-4.3,4.3l-19-19v-63.1h-3.4v57.6"/>
			<g>
				<polyline class="st6" points="844.1,325.7 843.3,330.3 847.9,329.5 847.1,334.1 851.7,333.3 850.9,337.9 855.5,337.1 
					854.7,341.7 859.3,340.9 858.5,345.5 863.1,344.7 				"/>
			</g>
			<path class="st6" d="M818.8,301.9v16.5c0,0,0,4-2,5.9"/>
			<path class="st6" d="M823.5,317.8l-7.5,7.5c-4.6,4.6-4.6,12,0,16.5l4.3,4.3l19-19v-22.7"/>
			<g>
				<polyline class="st6" points="819.1,344.7 823.7,345.5 822.9,340.9 827.5,341.7 826.7,337.1 831.3,337.9 830.5,333.3 
					835.1,334.1 834.3,329.5 838.9,330.3 838.1,325.7 				"/>
			</g>
			<path class="st6" d="M863.3,307.2L863.3,307.2c-6.7,2.5-13.9,2.5-20.6,0h0"/>
			<path class="st6" d="M863.3,304.4L863.3,304.4c-6.7,2.5-13.9,2.5-20.6,0h0"/>
			<path class="st6" d="M818.9,307.2L818.9,307.2c6.7,2.5,13.9,2.5,20.6,0h0"/>
			<path class="st6" d="M818.9,304.4L818.9,304.4c6.7,2.5,13.9,2.5,20.6,0h0"/>
			<path class="st6" d="M827.2,183c-1.7,0-3.1,1.4-3.1,3.1h6.2C830.3,184.3,828.9,183,827.2,183z"/>
			<path class="st6" d="M855.4,183c-1.7,0-3.1,1.4-3.1,3.1h6.2C858.5,184.3,857.1,183,855.4,183z"/>
			<line class="st6" x1="852.5" y1="180.5" x2="853.9" y2="181.9"/>
			<line class="st6" x1="858.3" y1="180.5" x2="856.8" y2="181.9"/>
			<line class="st6" x1="824.3" y1="180.5" x2="825.8" y2="181.9"/>
			<line class="st6" x1="830.1" y1="180.5" x2="828.7" y2="181.9"/>
			<line class="st6" x1="833.8" y1="204.6" x2="835.2" y2="206"/>
			<line class="st6" x1="839.6" y1="204.6" x2="838.1" y2="206"/>
			<line class="st6" x1="845.9" y1="211.8" x2="844.4" y2="210.4"/>
			<line class="st6" x1="840.1" y1="211.8" x2="841.6" y2="210.4"/>
			<path class="st6" d="M887.4,212.1c-3.2,0-5.7,2.6-5.7,5.7s2.6,5.7,5.7,5.7V212.1z"/>
			<path class="st6" d="M863.3,271.3c-5.4,0-9.7,4.4-9.7,9.7c0,5.4,4.4,9.7,9.7,9.7V271.3z"/>
			<path class="st6" d="M818.8,290.8c5.4,0,9.7-4.4,9.7-9.7c0-5.4-4.4-9.7-9.7-9.7V290.8z"/>
			<path class="st6" d="M794.7,223.5c3.2,0,5.7-2.6,5.7-5.7c0-3.2-2.6-5.7-5.7-5.7V223.5z"/>
			<path class="st6" d="M854.2,243.9h-25.1c-1.8,0-3.3-1.5-3.3-3.3v-36c0-1.8,1.5-3.3,3.3-3.3h25.1c1.8,0,3.3,1.5,3.3,3.3v36
				C857.5,242.4,856,243.9,854.2,243.9z"/>
			<line class="st6" x1="848" y1="201.2" x2="848" y2="243.9"/>
			<line class="st6" x1="849.3" y1="206.6" x2="856.2" y2="206.6"/>
			<line class="st6" x1="849.3" y1="204.9" x2="856.2" y2="204.9"/>
			<line class="st6" x1="849.3" y1="203.1" x2="855.3" y2="203.1"/>
			<line class="st6" x1="849.3" y1="208.5" x2="856.2" y2="208.5"/>
			<line class="st6" x1="849.3" y1="210.3" x2="856.2" y2="210.3"/>
			<line class="st6" x1="849.3" y1="212.1" x2="856.2" y2="212.1"/>
			<line class="st6" x1="849.3" y1="214" x2="856.2" y2="214"/>
			<line class="st6" x1="849.3" y1="215.8" x2="856.2" y2="215.8"/>
			<line class="st6" x1="849.3" y1="217.6" x2="856.2" y2="217.6"/>
			<line class="st6" x1="849.3" y1="219.5" x2="856.2" y2="219.5"/>
			<line class="st6" x1="849.3" y1="221.3" x2="856.2" y2="221.3"/>
			<line class="st6" x1="849.3" y1="223.1" x2="856.2" y2="223.1"/>
			<line class="st6" x1="849.3" y1="225" x2="856.2" y2="225"/>
			<line class="st6" x1="849.3" y1="226.8" x2="856.2" y2="226.8"/>
			<line class="st6" x1="849.3" y1="228.6" x2="856.2" y2="228.6"/>
			<line class="st6" x1="849.3" y1="230.5" x2="856.2" y2="230.5"/>
			<path class="st6" d="M854,241.9h-4.4v-11.5h6.2v9.6C855.8,241.1,855,241.9,854,241.9z"/>
			<circle class="st6" cx="830.3" cy="207.9" r="1.4"/>
			<circle class="st6" cx="836.7" cy="207.9" r="1.4"/>
			<circle class="st6" cx="843" cy="207.9" r="1.4"/>
			<line class="st6" x1="833.8" y1="234.5" x2="835.2" y2="235.9"/>
			<line class="st6" x1="839.6" y1="234.5" x2="838.1" y2="235.9"/>
			<line class="st6" x1="845.9" y1="241.7" x2="844.4" y2="240.3"/>
			<line class="st6" x1="840.1" y1="241.7" x2="841.6" y2="240.3"/>
			<circle class="st6" cx="830.3" cy="237.8" r="1.4"/>
			<circle class="st6" cx="836.7" cy="237.8" r="1.4"/>
			<circle class="st6" cx="843" cy="237.8" r="1.4"/>
			<rect x="828.9" y="213.7" class="st6" width="15.5" height="8"/>
			<rect x="837.5" y="223.1" class="st6" width="7" height="8"/>
			<rect x="828.9" y="223.1" class="st6" width="7" height="8"/>
			<line class="st6" x1="794.7" y1="232.3" x2="810.1" y2="232.3"/>
			<line class="st6" x1="872" y1="232.3" x2="887.4" y2="232.3"/>
		</g>
		<g>
			<path class="st6" d="M972.8,241.9h-27.8c-1.9,0-3.4-1.5-3.4-3.4V225c0-1.9,1.5-3.4,3.4-3.4h27.8c1.9,0,3.4,1.5,3.4,3.4v13.5
				C976.2,240.4,974.7,241.9,972.8,241.9z"/>
			<line class="st6" x1="959" y1="221.6" x2="959" y2="241.9"/>
			<line class="st6" x1="941.7" y1="228.6" x2="976.2" y2="228.6"/>
			<line class="st6" x1="941.7" y1="234.9" x2="976.2" y2="234.9"/>
			<path class="st6" d="M981.2,299.8L981.2,299.8c-6.7,2.5-13.9,2.5-20.6,0h0"/>
			<path class="st6" d="M957.3,299.8L957.3,299.8c-6.7,2.5-13.9,2.5-20.6,0l0,0"/>
			<g>
				<path class="st6" d="M965.3,168.1c0.9-1,1.4-2.2,1.4-3.6c0-2.9-2.4-5.3-5.3-5.3c-2.9,0-5.3,2.4-5.3,5.3c0,1.8,0.9,3.5,2.4,4.4
					l1.6,0.8"/>
				<path class="st6" d="M932.3,186c-3,0-3.8-4.1-1.1-5.2l27.5-11.7l27.5,11.7c2.7,1.2,1.9,5.2-1.1,5.2h-1.8"/>
			</g>
			<path class="st6" d="M986.6,201.2v51.4h15.4v-51.4h0c0-8.4-6.8-15.2-15.2-15.2h-0.6h-1.8"/>
			<path class="st6" d="M983.2,324.4c-1.9-1.9-2-5.9-2-5.9v-73.3l5.4-43.9"/>
			<path class="st6" d="M934.1,186h-3h-0.6c-8.4,0-15.2,6.8-15.2,15.2h0v51.4h15.4v-51.4"/>
			<line class="st6" x1="930.7" y1="201.2" x2="932.4" y2="214.3"/>
			<polyline class="st6" points="936.7,317.8 936.7,245.1 931.9,210.5 			"/>
			<polyline class="st6" points="960.7,327 960.7,263.9 957.3,263.9 957.3,327 			"/>
			<path class="st6" d="M960.7,327l19,19l4.3-4.3c4.6-4.6,4.6-12,0-16.5l-7.5-7.5"/>
			<g>
				<path class="st6" d="M936.7,292.6v25.8c0,0,0,4-2,5.9"/>
				<path class="st6" d="M957.3,327l-19,19l-4.3-4.3c-4.6-4.6-4.6-12,0-16.5l7.5-7.5"/>
			</g>
			<path class="st6" d="M931.2,182.7c-0.8,0.3-1.5,0.8-2.1,1.5c-0.4,0.5-0.7,1.1-0.8,1.9"/>
			<path class="st6" d="M948.7,190c0,0,0.4-2.5-1.1-5.2c-0.9-1.6-2.6-2.5-4.4-2.5H933c-0.6,0-1.3,0.1-1.8,0.3"/>
			<path class="st6" d="M943.5,190c0,0,0.4-2.5-1.1-5.2c-0.9-1.6-2.6-2.5-4.4-2.5h-5.8"/>
			<path class="st6" d="M934.6,190c0,0,0.4-2.5-1.1-5.2c-0.6-1-1.5-1.8-2.6-2.2"/>
			<path class="st6" d="M974,190c0,0-0.4-2.5,1.1-5.2c0.9-1.6,2.6-2.5,4.4-2.5h5.8"/>
			<path class="st6" d="M982.9,190c0,0-0.4-2.5,1.1-5.2c0.6-1,1.5-1.8,2.6-2.2"/>
			<path class="st6" d="M969.2,190c0,0-0.4-2.5,1.1-5.2c0.9-1.6,2.6-2.5,4.4-2.5h10.2c1.5,0,2.9,0.6,3.9,1.8
				c0.4,0.5,0.7,1.1,0.8,1.9"/>
			<line class="st6" x1="933.2" y1="190" x2="984.4" y2="190"/>
			<path class="st6" d="M936.7,312.4c-1.4,2.2-3.1,4.1-5.9,4.1c-6.7,0-6.7-10.7-13.3-10.7h-0.1c12.4-17.1,5.9-32,2.2-41.9
				c-2.8-7.4-1.3-11.3-1.3-11.3"/>
			<path class="st6" d="M981.2,306.1c12.4-17.1,5.9-32,2.2-41.9c-1-2.6-2-4.9-2.2-6.6V255"/>
			<path class="st6" d="M960.7,315.5c-0.9,0.6-1.9,1-3.1,1"/>
			<line class="st6" x1="936.7" y1="245.1" x2="981.2" y2="245.1"/>
			<rect x="955" y="245.1" class="st6" width="7.5" height="3.1"/>
			<polyline class="st6" points="957.3,263.9 936.7,254.3 936.7,248.2 981.2,248.2 981.2,254.3 960.7,263.9 			"/>
			<polygon class="st0" points="955.2,220.2 959,224.4 961.9,221 			"/>
			<g>
				<polyline class="st6" points="946.2,193.6 973.8,193.6 980.3,200.2 959,224.4 937.6,200.2 944.2,193.6 971.5,193.6 				"/>
				<path class="st6" d="M974.3,194.2v7.2h-10.2c0,0,0-4.1-7-4.1c-7,0-6.8,4.4-6.8,4.4s-0.5,2.8,6.9,2.8c1.5,0,2.5,0,3.2,0
					c1.4,0,1.9,0,2,0c0.1,0,0.2,0,0.3,0c3.7,0,7.3,0.6,8.3,3.4c0,0,0.4,0.9,0.6,2.1"/>
				<path class="st6" d="M973.8,193.7h-2.3h-3.2v3.9c0,0,0,0.1,0,0.1c0,0,0,0,0-0.1c-1-3.5-4.1-3.9-4.7-3.9c-0.1,0-0.1,0-0.1,0
					s-7,0-13.1,0c-0.1,0-0.2,0-0.2,0c-6,0.1-10,5.1-8.4,10.5c0.2,0.7,0.5,1.3,0.9,1.9v0c0.3,0.4,0.6,0.8,1,1.1c0,0,0,0,0,0l0,0
					c2.6,2.4,6.7,2.3,6.7,2.3s9.4,0,10.7,0s3.6,0.5,3.3,2.4s-2.9,2.6-5.4,2.2c-3.3-0.5-5.7-3.1-5.7-3.1l-3.3,3.4l2.3,2.6
					c5.7,3.2,10.1,2.1,11.9,1.5"/>
			</g>
		</g>
		<g>
			<path class="st6" d="M1100.5,191.5v55.2h16v-55.2h0c0-8.7-7.1-15.8-15.8-15.8h-0.6h-6.3"/>
			<path class="st6" d="M1061.8,175.7h-8.7h-0.6c-8.7,0-15.8,7.1-15.8,15.8h0v55.2h16v-55.2"/>
			<polyline class="st6" points="1068.5,180.2 1084.4,180.2 1084.7,180.2 			"/>
			<path class="st6" d="M1048.9,246.7v8.6v8c0,9.1,4.4,17.2,11.3,22.3"/>
			<path class="st6" d="M1104.1,246.7v8.6v8c0,9-4.3,17-11,22.1"/>
			<path class="st6" d="M1068.5,180.2v18.3v26v8.7v2.4c0,7.8-4.6,14.6-11.2,17.8c-2.6,1.2-5.4,1.9-8.5,1.9v-8.6"/>
			<path class="st6" d="M1084.7,180.2h-0.2v18.5v34.5v2.4c0,7.9,4.7,14.8,11.5,17.9c2.5,1.1,5.3,1.8,8.2,1.8v-8.6"/>
			<g>
				<path class="st6" d="M1062.6,175.7h-8.1v36.2c0,9.3,5.6,17.6,14.1,21.2h0v-57.5V171L1062.6,175.7z"/>
				<path class="st6" d="M1090.6,175.7h8.1v36.2c0,9.3-5.6,17.6-14.1,21.2h0v-57.5V171L1090.6,175.7z"/>
			</g>
			<polyline class="st6" points="1068.5,198.6 1076.5,203.9 1084.7,198.6 			"/>
			<polyline class="st6" points="1057.3,253.4 1063.1,324.4 1076.6,324.4 1076.6,254.4 			"/>
			<path class="st6" d="M1062.3,315.7c0,0,5.5-2.8,14.3,0"/>
			<polyline class="st6" points="1095.9,253.4 1090.1,324.4 1076.6,324.4 1076.6,254.4 			"/>
			<path class="st6" d="M1090.9,315.7c0,0-5.5-2.8-14.3,0"/>
			<line class="st6" x1="1068.5" y1="233.2" x2="1084.7" y2="233.2"/>
			<g>
				<path class="st6" d="M1083.2,168.2c0.9-1,1.4-2.2,1.4-3.6c0-2.9-2.4-5.3-5.3-5.3s-5.3,2.4-5.3,5.3c0,1.8,0.9,3.5,2.4,4.4
					l1.6,0.8"/>
				<polyline class="st6" points="1068.5,172.7 1076.6,169.3 1084.7,172.7 				"/>
			</g>
		</g>
		<g>
			<g>
				<path class="st6" d="M1193.7,335.8h-33.8c-1.3,0-2.3-1-2.3-2.3l0,0c0-1.3,1-2.3,2.3-2.3h33.8c1.3,0,2.3,1,2.3,2.3l0,0
					C1196,334.8,1194.9,335.8,1193.7,335.8z"/>
				<path class="st6" d="M1190.2,335.8l2.5,24.8c0,0.1,0,0.1-0.1,0.1h-15.2h-0.6h-15.2c-0.1,0-0.1-0.1-0.1-0.1l2.5-24.8"/>
				<line class="st6" x1="1163.7" y1="339.1" x2="1190.5" y2="339.1"/>
				<path class="st6" d="M1170.7,331.2c0.2-1.8,1.1-3.5,2.3-4.7c-1.1-1.7-6.9-10.8-7.8-19.5c-1-9.7,2.2-13.8,2.2-13.8
					s7.3,3.4,9.1,12.4c1.6,7.9,1.8,16.5,1.8,18.5c0.2,0,0.4,0,0.6,0c0.2,0,0.4,0,0.6,0c0-2,0.1-10.6,1.8-18.5
					c1.9-9,9.1-12.4,9.1-12.4s3.2,4.2,2.2,13.8c-0.9,8.7-6.6,17.7-7.8,19.5c1.2,1.3,2.1,2.9,2.3,4.8"/>
			</g>
			<polyline class="st6" points="1168.1,331.2 1162.8,318.9 1160.4,313.4 1156.1,315.2 1158.3,320.4 1158.5,320.8 1162.9,331.2 			
				"/>
			<line class="st6" x1="1162.8" y1="318.9" x2="1158.5" y2="320.8"/>
		</g>
		<circle class="st6" cx="843.5" cy="164.4" r="3.2"/>
		<circle class="st6" cx="961.4" cy="164.4" r="3.2"/>
		<circle class="st6" cx="1079.2" cy="164.4" r="3.2"/>
		<line class="st6" x1="845.8" y1="162.2" x2="841.2" y2="166.7"/>
		<line class="st6" x1="963.7" y1="162.2" x2="959.2" y2="166.7"/>
		<line class="st6" x1="1081.5" y1="162.2" x2="1076.9" y2="166.7"/>
		<path class="st6" d="M1130.8,148.1h-339c-1.4,0-2.6-1.2-2.6-2.6v0c0-1.4,1.2-2.6,2.6-2.6h339c1.4,0,2.6,1.2,2.6,2.6v0
			C1133.4,146.9,1132.3,148.1,1130.8,148.1z"/>
		<g>
			<defs>
				<path id="SVGID_1_" d="M1130.8,148.1h-339c-1.4,0-2.6-1.2-2.6-2.6v0c0-1.4,1.2-2.6,2.6-2.6h339c1.4,0,2.6,1.2,2.6,2.6v0
					C1133.4,146.9,1132.3,148.1,1130.8,148.1z"/>
			</defs>
			<clipPath id="SVGID_2_">
				<use xlink:href="#SVGID_1_"  style="overflow:visible;"/>
			</clipPath>
			<g class="st10">
				<line class="st6" x1="777.6" y1="135.8" x2="763.4" y2="150"/>
				<line class="st6" x1="786.6" y1="135.8" x2="772.4" y2="150"/>
				<line class="st6" x1="795.6" y1="135.8" x2="781.4" y2="150"/>
				<line class="st6" x1="804.6" y1="135.8" x2="790.4" y2="150"/>
				<line class="st6" x1="813.6" y1="135.8" x2="799.4" y2="150"/>
				<line class="st6" x1="822.5" y1="135.8" x2="808.4" y2="150"/>
				<line class="st6" x1="831.5" y1="135.8" x2="817.4" y2="150"/>
				<line class="st6" x1="840.5" y1="135.8" x2="826.4" y2="150"/>
				<line class="st6" x1="849.5" y1="135.8" x2="835.4" y2="150"/>
				<line class="st6" x1="858.5" y1="135.8" x2="844.4" y2="150"/>
				<line class="st6" x1="867.5" y1="135.8" x2="853.3" y2="150"/>
				<line class="st6" x1="876.5" y1="135.8" x2="862.3" y2="150"/>
				<line class="st6" x1="885.5" y1="135.8" x2="871.3" y2="150"/>
				<line class="st6" x1="894.5" y1="135.8" x2="880.3" y2="150"/>
				<line class="st6" x1="903.5" y1="135.8" x2="889.3" y2="150"/>
				<line class="st6" x1="912.5" y1="135.8" x2="898.3" y2="150"/>
				<line class="st6" x1="921.5" y1="135.8" x2="907.3" y2="150"/>
				<line class="st6" x1="930.4" y1="135.8" x2="916.3" y2="150"/>
				<line class="st6" x1="939.4" y1="135.8" x2="925.3" y2="150"/>
				<line class="st6" x1="948.4" y1="135.8" x2="934.3" y2="150"/>
				<line class="st6" x1="957.4" y1="135.8" x2="943.3" y2="150"/>
				<line class="st6" x1="966.4" y1="135.8" x2="952.3" y2="150"/>
				<line class="st6" x1="975.4" y1="135.8" x2="961.2" y2="150"/>
				<line class="st6" x1="984.4" y1="135.8" x2="970.2" y2="150"/>
				<line class="st6" x1="993.4" y1="135.8" x2="979.2" y2="150"/>
				<line class="st6" x1="1002.4" y1="135.8" x2="988.2" y2="150"/>
				<line class="st6" x1="1011.4" y1="135.8" x2="997.2" y2="150"/>
				<line class="st6" x1="1020.4" y1="135.8" x2="1006.2" y2="150"/>
				<line class="st6" x1="1029.4" y1="135.8" x2="1015.2" y2="150"/>
				<line class="st6" x1="1038.3" y1="135.8" x2="1024.2" y2="150"/>
				<line class="st6" x1="1047.3" y1="135.8" x2="1033.2" y2="150"/>
				<line class="st6" x1="1056.3" y1="135.8" x2="1042.2" y2="150"/>
				<line class="st6" x1="1065.3" y1="135.8" x2="1051.2" y2="150"/>
				<line class="st6" x1="1074.3" y1="135.8" x2="1060.2" y2="150"/>
				<line class="st6" x1="1083.3" y1="135.8" x2="1069.1" y2="150"/>
				<line class="st6" x1="1092.3" y1="135.8" x2="1078.1" y2="150"/>
				<line class="st6" x1="1101.3" y1="135.8" x2="1087.1" y2="150"/>
				<line class="st6" x1="1110.3" y1="135.8" x2="1096.1" y2="150"/>
				<line class="st6" x1="1119.3" y1="135.8" x2="1105.1" y2="150"/>
				<line class="st6" x1="1128.3" y1="135.8" x2="1114.1" y2="150"/>
				<line class="st6" x1="1137.3" y1="135.8" x2="1123.1" y2="150"/>
			</g>
		</g>
	</g>
</g>
</svg>
