<?xml version="1.0" encoding="utf-8"?>
<!-- Generator: Adobe Illustrator 19.2.0, SVG Export Plug-In . SVG Version: 6.00 Build 0)  -->
<svg version="1.1" xmlns="http://www.w3.org/2000/svg" xmlns:xlink="http://www.w3.org/1999/xlink" x="0px" y="0px"
	 viewBox="0 0 1921.8 819.4" style="enable-background:new 0 0 1921.8 819.4;" xml:space="preserve">
<style type="text/css">
	.st0{fill:#203B90;}
	.st1{fill:none;}
	.st2{fill:#E5007E;}
	.st3{font-family:'FranklinGothic-Heavy';}
	.st4{font-size:145.4704px;}
	.st5{fill:none;stroke:#1D1D1B;stroke-miterlimit:10;}
	.st6{fill:#1D1D1B;}
	.st7{font-family:'HurufMiranti';}
	.st8{font-size:96.5271px;}
	.st9{fill:#FFFFFF;}
	.st10{clip-path:url(#SVGID_2_);}
</style>
<g id="Layer_1">
</g>
<g id="guides">
	<rect x="-28.2" y="457.9" class="st0" width="1978.6" height="370.5"/>
	<rect x="153.4" y="361.2" class="st1" width="1614.7" height="116.4"/>
	<text transform="matrix(1 0 0 1 708.8376 458.1909)" class="st2 st3 st4">FAKE IT</text>
	<line class="st5" x1="-22.2" y1="457.9" x2="1944.5" y2="457.9"/>
	<rect x="153.3" y="395.5" class="st1" width="1615.2" height="91.8"/>
	<text transform="matrix(1 0 0 1 722.0925 462.8042)" class="st6 st7 st8">until you make it</text>
	<g>
		<g>
			<path class="st5" d="M777.2,360.8h-44.7v-25.6c0-12.3,10.1-22.4,22.4-22.4l0,0c12.3,0,22.4,10.1,22.4,22.4V360.8z"/>
			<circle class="st5" cx="754.8" cy="335.3" r="19.4"/>
			<g>
				<path class="st5" d="M771.3,324.7c-6.8,6.8-11.4,2.2-18.2,9c-6.8,6.8-2.2,11.4-9,18.2"/>
			</g>
			<line class="st5" x1="754.1" y1="312.9" x2="754.1" y2="303.7"/>
			<circle class="st5" cx="754.1" cy="306.7" r="1.2"/>
		</g>
		<g>
			<g>
				<path class="st5" d="M847.4,168.2c0.9-1,1.4-2.2,1.4-3.6c0-2.9-2.4-5.3-5.3-5.3c-2.9,0-5.3,2.4-5.3,5.3c0,1.8,0.9,3.5,2.4,4.4
					l1.6,0.8"/>
				<path class="st5" d="M840.8,186.1h-26.5c-3,0-3.8-4.1-1.1-5.2l27.5-11.7l27.5,11.7c2.7,1.2,1.9,5.2-1.1,5.2H840.8z"/>
			</g>
			<path class="st5" d="M816.7,238.2c0-2-1.6-3.6-3.6-3.6h-3.4h-4.4h-10.6v15.1c0,4.2,3.4,7.5,7.5,7.5l0,0c4.2,0,7.5-3.4,7.5-7.5
				v-7.9h3.4C815.1,241.8,816.7,240.2,816.7,238.2L816.7,238.2z"/>
			<rect x="794.7" y="201.3" class="st5" width="15.4" height="33.3"/>
			
				<rect x="806.8" y="189.4" transform="matrix(4.567261e-11 1 -1 4.567261e-11 1008.1516 -620.722)" class="st5" width="15.2" height="8.7"/>
			<path class="st5" d="M810.1,201.3l-15.4,0c0-8.4,6.8-15.2,15.2-15.2h0.6"/>
			<path class="st5" d="M865.4,238.2c0-2,1.6-3.6,3.6-3.6h3.4h4.4h10.6v15.1c0,4.2-3.4,7.5-7.5,7.5l0,0c-4.2,0-7.5-3.4-7.5-7.5v-7.9
				H869C867,241.8,865.4,240.2,865.4,238.2L865.4,238.2z"/>
			
				<rect x="872" y="201.3" transform="matrix(-1 -4.479984e-11 4.479984e-11 -1 1759.4496 435.8667)" class="st5" width="15.4" height="33.3"/>
			
				<rect x="860.1" y="189.4" transform="matrix(-9.050645e-11 1 -1 -9.050645e-11 1061.3727 -673.9432)" class="st5" width="15.2" height="8.7"/>
			<path class="st5" d="M872,201.3l15.4,0c0-8.4-6.8-15.2-15.2-15.2h-0.6"/>
			<path class="st5" d="M863.3,186.3v132.2c0,0,0,4,2,5.9"/>
			<polyline class="st5" points="818.8,317.3 818.8,186.1 863.3,186.1 			"/>
			<path class="st5" d="M858.6,317.8l7.5,7.5c4.6,4.6,4.6,12,0,16.5l-4.3,4.3l-19-19V264h-3.4v57.6"/>
			<g>
				<polyline class="st5" points="844.1,325.8 843.3,330.4 847.9,329.6 847.1,334.2 851.7,333.4 850.9,338 855.5,337.2 854.7,341.8 
					859.3,341 858.5,345.6 863.1,344.8 				"/>
			</g>
			<path class="st5" d="M818.8,302v16.5c0,0,0,4-2,5.9"/>
			<path class="st5" d="M823.5,317.8l-7.5,7.5c-4.6,4.6-4.6,12,0,16.5l4.3,4.3l19-19v-22.7"/>
			<g>
				<polyline class="st5" points="819.1,344.8 823.7,345.6 822.9,341 827.5,341.8 826.7,337.2 831.3,338 830.5,333.4 835.1,334.2 
					834.3,329.6 838.9,330.4 838.1,325.8 				"/>
			</g>
			<path class="st5" d="M863.3,307.3L863.3,307.3c-6.7,2.5-13.9,2.5-20.6,0l0,0"/>
			<path class="st5" d="M863.3,304.5L863.3,304.5c-6.7,2.5-13.9,2.5-20.6,0h0"/>
			<path class="st5" d="M818.9,307.3L818.9,307.3c6.7,2.5,13.9,2.5,20.6,0l0,0"/>
			<path class="st5" d="M818.9,304.5L818.9,304.5c6.7,2.5,13.9,2.5,20.6,0h0"/>
			<path class="st5" d="M827.2,183c-1.7,0-3.1,1.4-3.1,3.1h6.2C830.3,184.4,828.9,183,827.2,183z"/>
			<path class="st5" d="M855.4,183c-1.7,0-3.1,1.4-3.1,3.1h6.2C858.5,184.4,857.1,183,855.4,183z"/>
			<line class="st5" x1="852.5" y1="180.6" x2="853.9" y2="182"/>
			<line class="st5" x1="858.3" y1="180.6" x2="856.8" y2="182"/>
			<line class="st5" x1="824.3" y1="180.6" x2="825.8" y2="182"/>
			<line class="st5" x1="830.1" y1="180.6" x2="828.7" y2="182"/>
			<line class="st5" x1="833.8" y1="204.7" x2="835.2" y2="206.1"/>
			<line class="st5" x1="839.6" y1="204.7" x2="838.1" y2="206.1"/>
			<line class="st5" x1="845.9" y1="211.9" x2="844.4" y2="210.5"/>
			<line class="st5" x1="840.1" y1="211.9" x2="841.6" y2="210.5"/>
			<path class="st5" d="M887.4,212.2c-3.2,0-5.7,2.6-5.7,5.7s2.6,5.7,5.7,5.7V212.2z"/>
			<path class="st5" d="M863.3,271.4c-5.4,0-9.7,4.4-9.7,9.7c0,5.4,4.4,9.7,9.7,9.7V271.4z"/>
			<path class="st5" d="M818.8,290.9c5.4,0,9.7-4.4,9.7-9.7c0-5.4-4.4-9.7-9.7-9.7V290.9z"/>
			<path class="st5" d="M794.7,223.6c3.2,0,5.7-2.6,5.7-5.7c0-3.2-2.6-5.7-5.7-5.7V223.6z"/>
			<path class="st5" d="M854.2,244h-25.1c-1.8,0-3.3-1.5-3.3-3.3v-36c0-1.8,1.5-3.3,3.3-3.3h25.1c1.8,0,3.3,1.5,3.3,3.3v36
				C857.5,242.5,856,244,854.2,244z"/>
			<line class="st5" x1="848" y1="201.3" x2="848" y2="244"/>
			<line class="st5" x1="849.3" y1="206.7" x2="856.2" y2="206.7"/>
			<line class="st5" x1="849.3" y1="205" x2="856.2" y2="205"/>
			<line class="st5" x1="849.3" y1="203.2" x2="855.3" y2="203.2"/>
			<line class="st5" x1="849.3" y1="208.5" x2="856.2" y2="208.5"/>
			<line class="st5" x1="849.3" y1="210.4" x2="856.2" y2="210.4"/>
			<line class="st5" x1="849.3" y1="212.2" x2="856.2" y2="212.2"/>
			<line class="st5" x1="849.3" y1="214.1" x2="856.2" y2="214.1"/>
			<line class="st5" x1="849.3" y1="215.9" x2="856.2" y2="215.9"/>
			<line class="st5" x1="849.3" y1="217.7" x2="856.2" y2="217.7"/>
			<line class="st5" x1="849.3" y1="219.6" x2="856.2" y2="219.6"/>
			<line class="st5" x1="849.3" y1="221.4" x2="856.2" y2="221.4"/>
			<line class="st5" x1="849.3" y1="223.2" x2="856.2" y2="223.2"/>
			<line class="st5" x1="849.3" y1="225.1" x2="856.2" y2="225.1"/>
			<line class="st5" x1="849.3" y1="226.9" x2="856.2" y2="226.9"/>
			<line class="st5" x1="849.3" y1="228.7" x2="856.2" y2="228.7"/>
			<line class="st5" x1="849.3" y1="230.6" x2="856.2" y2="230.6"/>
			<path class="st5" d="M854,242h-4.4v-11.5h6.2v9.6C855.8,241.2,855,242,854,242z"/>
			<circle class="st5" cx="830.3" cy="208" r="1.4"/>
			<circle class="st5" cx="836.7" cy="208" r="1.4"/>
			<circle class="st5" cx="843" cy="208" r="1.4"/>
			<line class="st5" x1="833.8" y1="234.6" x2="835.2" y2="236"/>
			<line class="st5" x1="839.6" y1="234.6" x2="838.1" y2="236"/>
			<line class="st5" x1="845.9" y1="241.8" x2="844.4" y2="240.4"/>
			<line class="st5" x1="840.1" y1="241.8" x2="841.6" y2="240.4"/>
			<circle class="st5" cx="830.3" cy="237.9" r="1.4"/>
			<circle class="st5" cx="836.7" cy="237.9" r="1.4"/>
			<circle class="st5" cx="843" cy="237.9" r="1.4"/>
			<rect x="828.9" y="213.8" class="st5" width="15.5" height="8"/>
			<rect x="837.5" y="223.2" class="st5" width="7" height="8"/>
			<rect x="828.9" y="223.2" class="st5" width="7" height="8"/>
			<line class="st5" x1="794.7" y1="232.4" x2="810.1" y2="232.4"/>
			<line class="st5" x1="872" y1="232.4" x2="887.4" y2="232.4"/>
		</g>
		<g>
			<path class="st5" d="M972.8,242h-27.8c-1.9,0-3.4-1.5-3.4-3.4v-13.5c0-1.9,1.5-3.4,3.4-3.4h27.8c1.9,0,3.4,1.5,3.4,3.4v13.5
				C976.2,240.5,974.7,242,972.8,242z"/>
			<line class="st5" x1="959" y1="221.7" x2="959" y2="242"/>
			<line class="st5" x1="941.7" y1="228.7" x2="976.2" y2="228.7"/>
			<line class="st5" x1="941.7" y1="235" x2="976.2" y2="235"/>
			<path class="st5" d="M981.2,299.8L981.2,299.8c-6.7,2.5-13.9,2.5-20.6,0h0"/>
			<path class="st5" d="M957.3,299.8L957.3,299.8c-6.7,2.5-13.9,2.5-20.6,0l0,0"/>
			<g>
				<path class="st5" d="M965.3,168.2c0.9-1,1.4-2.2,1.4-3.6c0-2.9-2.4-5.3-5.3-5.3c-2.9,0-5.3,2.4-5.3,5.3c0,1.8,0.9,3.5,2.4,4.4
					l1.6,0.8"/>
				<path class="st5" d="M932.3,186.1c-3,0-3.8-4.1-1.1-5.2l27.5-11.7l27.5,11.7c2.7,1.2,1.9,5.2-1.1,5.2h-1.8"/>
			</g>
			<path class="st5" d="M986.6,201.3v51.4h15.4v-51.4h0c0-8.4-6.8-15.2-15.2-15.2h-0.6h-1.8"/>
			<path class="st5" d="M983.2,324.5c-1.9-1.9-2-5.9-2-5.9v-73.3l5.4-43.9"/>
			<path class="st5" d="M934.1,186.1h-3h-0.6c-8.4,0-15.2,6.8-15.2,15.2h0v51.4h15.4v-51.4"/>
			<line class="st5" x1="930.7" y1="201.3" x2="932.4" y2="214.4"/>
			<polyline class="st5" points="936.7,317.8 936.7,245.2 931.9,210.6 			"/>
			<polyline class="st5" points="960.7,327.1 960.7,264 957.3,264 957.3,327.1 			"/>
			<path class="st5" d="M960.7,327.1l19,19l4.3-4.3c4.6-4.6,4.6-12,0-16.5l-7.5-7.5"/>
			<g>
				<path class="st5" d="M936.7,292.7v25.8c0,0,0,4-2,5.9"/>
				<path class="st5" d="M957.3,327.1l-19,19l-4.3-4.3c-4.6-4.6-4.6-12,0-16.5l7.5-7.5"/>
			</g>
			<path class="st5" d="M931.2,182.8c-0.8,0.3-1.5,0.8-2.1,1.5c-0.4,0.5-0.7,1.1-0.8,1.9"/>
			<path class="st5" d="M948.7,190.1c0,0,0.4-2.5-1.1-5.2c-0.9-1.6-2.6-2.5-4.4-2.5H933c-0.6,0-1.3,0.1-1.8,0.3"/>
			<path class="st5" d="M943.5,190.1c0,0,0.4-2.5-1.1-5.2c-0.9-1.6-2.6-2.5-4.4-2.5h-5.8"/>
			<path class="st5" d="M934.6,190.1c0,0,0.4-2.5-1.1-5.2c-0.6-1-1.5-1.8-2.6-2.2"/>
			<path class="st5" d="M974,190.1c0,0-0.4-2.5,1.1-5.2c0.9-1.6,2.6-2.5,4.4-2.5h5.8"/>
			<path class="st5" d="M982.9,190.1c0,0-0.4-2.5,1.1-5.2c0.6-1,1.5-1.8,2.6-2.2"/>
			<path class="st5" d="M969.2,190.1c0,0-0.4-2.5,1.1-5.2c0.9-1.6,2.6-2.5,4.4-2.5h10.2c1.5,0,2.9,0.6,3.9,1.8
				c0.4,0.5,0.7,1.1,0.8,1.9"/>
			<line class="st5" x1="933.2" y1="190.1" x2="984.4" y2="190.1"/>
			<path class="st5" d="M936.7,312.5c-1.4,2.2-3.1,4.1-5.9,4.1c-6.7,0-6.7-10.7-13.3-10.7h-0.1c12.4-17.1,5.9-32,2.2-41.9
				c-2.8-7.4-1.3-11.3-1.3-11.3"/>
			<path class="st5" d="M981.2,306.1c12.4-17.1,5.9-32,2.2-41.9c-1-2.6-2-4.9-2.2-6.6v-2.6"/>
			<path class="st5" d="M960.7,315.6c-0.9,0.6-1.9,1-3.1,1"/>
			<line class="st5" x1="936.7" y1="245.2" x2="981.2" y2="245.2"/>
			<rect x="955" y="245.2" class="st5" width="7.5" height="3.1"/>
			<polyline class="st5" points="957.3,264 936.7,254.4 936.7,248.3 981.2,248.3 981.2,254.4 960.7,264 			"/>
			<polygon class="st9" points="955.2,220.3 959,224.5 961.9,221.1 			"/>
			<g>
				<polyline class="st5" points="946.2,193.7 973.8,193.7 980.3,200.3 959,224.5 937.6,200.3 944.2,193.7 971.5,193.7 				"/>
				<path class="st5" d="M974.3,194.3v7.2h-10.2c0,0,0-4.1-7-4.1c-7,0-6.8,4.4-6.8,4.4s-0.5,2.8,6.9,2.8c1.5,0,2.5,0,3.2,0
					c1.4,0,1.9,0,2,0c0.1,0,0.2,0,0.3,0c3.7,0,7.3,0.6,8.3,3.4c0,0,0.4,0.9,0.6,2.1"/>
				<path class="st5" d="M973.8,193.7h-2.3h-3.2v3.9c0,0,0,0.1,0,0.1c0,0,0,0,0-0.1c-1-3.5-4.1-3.9-4.7-3.9c-0.1,0-0.1,0-0.1,0
					s-7,0-13.1,0c-0.1,0-0.2,0-0.2,0c-6,0.1-10,5.1-8.4,10.5c0.2,0.7,0.5,1.3,0.9,1.9v0c0.3,0.4,0.6,0.8,1,1.1c0,0,0,0,0,0l0,0
					c2.6,2.4,6.7,2.3,6.7,2.3s9.4,0,10.7,0s3.6,0.5,3.3,2.4s-2.9,2.6-5.4,2.2c-3.3-0.5-5.7-3.1-5.7-3.1l-3.3,3.4l2.3,2.6
					c5.7,3.2,10.1,2.1,11.9,1.5"/>
			</g>
		</g>
		<g>
			<path class="st5" d="M1100.5,191.6v55.2h16v-55.2h0c0-8.7-7.1-15.8-15.8-15.8h-0.6h-6.3"/>
			<path class="st5" d="M1061.8,175.8h-8.7h-0.6c-8.7,0-15.8,7.1-15.8,15.8h0v55.2h16v-55.2"/>
			<polyline class="st5" points="1068.5,180.3 1084.4,180.3 1084.7,180.3 			"/>
			<path class="st5" d="M1048.9,246.8v8.6v8c0,9.1,4.4,17.2,11.3,22.3"/>
			<path class="st5" d="M1104.1,246.8v8.6v8c0,9-4.3,17-11,22.1"/>
			<path class="st5" d="M1068.5,180.3v18.3v26v8.7v2.4c0,7.8-4.6,14.6-11.2,17.8c-2.6,1.2-5.4,1.9-8.5,1.9v-8.6"/>
			<path class="st5" d="M1084.7,180.3h-0.2v18.5v34.5v2.4c0,7.9,4.7,14.8,11.5,17.9c2.5,1.1,5.3,1.8,8.2,1.8v-8.6"/>
			<g>
				<path class="st5" d="M1062.6,175.8h-8.1V212c0,9.3,5.6,17.6,14.1,21.2h0v-57.5v-4.7L1062.6,175.8z"/>
				<path class="st5" d="M1090.6,175.8h8.1V212c0,9.3-5.6,17.6-14.1,21.2h0v-57.5v-4.7L1090.6,175.8z"/>
			</g>
			<polyline class="st5" points="1068.5,198.6 1076.5,204 1084.7,198.6 			"/>
			<polyline class="st5" points="1057.3,253.5 1063.1,324.5 1076.6,324.5 1076.6,254.5 			"/>
			<path class="st5" d="M1062.3,315.8c0,0,5.5-2.8,14.3,0"/>
			<polyline class="st5" points="1095.9,253.5 1090.1,324.5 1076.6,324.5 1076.6,254.5 			"/>
			<path class="st5" d="M1090.9,315.8c0,0-5.5-2.8-14.3,0"/>
			<line class="st5" x1="1068.5" y1="233.3" x2="1084.7" y2="233.3"/>
			<g>
				<path class="st5" d="M1083.2,168.3c0.9-1,1.4-2.2,1.4-3.6c0-2.9-2.4-5.3-5.3-5.3s-5.3,2.4-5.3,5.3c0,1.8,0.9,3.5,2.4,4.4
					l1.6,0.8"/>
				<polyline class="st5" points="1068.5,172.8 1076.6,169.4 1084.7,172.8 				"/>
			</g>
		</g>
		<g>
			<g>
				<path class="st5" d="M1193.7,335.9h-33.8c-1.3,0-2.3-1-2.3-2.3l0,0c0-1.3,1-2.3,2.3-2.3h33.8c1.3,0,2.3,1,2.3,2.3l0,0
					C1196,334.9,1194.9,335.9,1193.7,335.9z"/>
				<path class="st5" d="M1190.2,335.9l2.5,24.8c0,0.1,0,0.1-0.1,0.1h-15.2h-0.6h-15.2c-0.1,0-0.1-0.1-0.1-0.1l2.5-24.8"/>
				<line class="st5" x1="1163.7" y1="339.2" x2="1190.5" y2="339.2"/>
				<path class="st5" d="M1170.7,331.3c0.2-1.8,1.1-3.5,2.3-4.7c-1.1-1.7-6.9-10.8-7.8-19.5c-1-9.7,2.2-13.8,2.2-13.8
					s7.3,3.4,9.1,12.4c1.6,7.9,1.8,16.5,1.8,18.5c0.2,0,0.4,0,0.6,0c0.2,0,0.4,0,0.6,0c0-2,0.1-10.6,1.8-18.5
					c1.9-9,9.1-12.4,9.1-12.4s3.2,4.2,2.2,13.8c-0.9,8.7-6.6,17.7-7.8,19.5c1.2,1.3,2.1,2.9,2.3,4.8"/>
			</g>
			<polyline class="st5" points="1168.1,331.3 1162.8,319 1160.4,313.4 1156.1,315.3 1158.3,320.5 1158.5,320.9 1162.9,331.3 			"/>
			<line class="st5" x1="1162.8" y1="319" x2="1158.5" y2="320.9"/>
		</g>
		<circle class="st5" cx="843.5" cy="164.5" r="3.2"/>
		<circle class="st5" cx="961.4" cy="164.5" r="3.2"/>
		<circle class="st5" cx="1079.2" cy="164.5" r="3.2"/>
		<line class="st5" x1="845.8" y1="162.2" x2="841.2" y2="166.8"/>
		<line class="st5" x1="963.7" y1="162.2" x2="959.2" y2="166.8"/>
		<line class="st5" x1="1081.5" y1="162.2" x2="1076.9" y2="166.8"/>
		<path class="st5" d="M1130.8,148.2h-339c-1.4,0-2.6-1.2-2.6-2.6l0,0c0-1.4,1.2-2.6,2.6-2.6h339c1.4,0,2.6,1.2,2.6,2.6l0,0
			C1133.4,147,1132.3,148.2,1130.8,148.2z"/>
		<g>
			<defs>
				<path id="SVGID_1_" d="M1130.8,148.2h-339c-1.4,0-2.6-1.2-2.6-2.6l0,0c0-1.4,1.2-2.6,2.6-2.6h339c1.4,0,2.6,1.2,2.6,2.6l0,0
					C1133.4,147,1132.3,148.2,1130.8,148.2z"/>
			</defs>
			<clipPath id="SVGID_2_">
				<use xlink:href="#SVGID_1_"  style="overflow:visible;"/>
			</clipPath>
			<g class="st10">
				<line class="st5" x1="777.6" y1="135.9" x2="763.4" y2="150.1"/>
				<line class="st5" x1="786.6" y1="135.9" x2="772.4" y2="150.1"/>
				<line class="st5" x1="795.6" y1="135.9" x2="781.4" y2="150.1"/>
				<line class="st5" x1="804.6" y1="135.9" x2="790.4" y2="150.1"/>
				<line class="st5" x1="813.6" y1="135.9" x2="799.4" y2="150.1"/>
				<line class="st5" x1="822.5" y1="135.9" x2="808.4" y2="150.1"/>
				<line class="st5" x1="831.5" y1="135.9" x2="817.4" y2="150.1"/>
				<line class="st5" x1="840.5" y1="135.9" x2="826.4" y2="150.1"/>
				<line class="st5" x1="849.5" y1="135.9" x2="835.4" y2="150.1"/>
				<line class="st5" x1="858.5" y1="135.9" x2="844.4" y2="150.1"/>
				<line class="st5" x1="867.5" y1="135.9" x2="853.3" y2="150.1"/>
				<line class="st5" x1="876.5" y1="135.9" x2="862.3" y2="150.1"/>
				<line class="st5" x1="885.5" y1="135.9" x2="871.3" y2="150.1"/>
				<line class="st5" x1="894.5" y1="135.9" x2="880.3" y2="150.1"/>
				<line class="st5" x1="903.5" y1="135.9" x2="889.3" y2="150.1"/>
				<line class="st5" x1="912.5" y1="135.9" x2="898.3" y2="150.1"/>
				<line class="st5" x1="921.5" y1="135.9" x2="907.3" y2="150.1"/>
				<line class="st5" x1="930.4" y1="135.9" x2="916.3" y2="150.1"/>
				<line class="st5" x1="939.4" y1="135.9" x2="925.3" y2="150.1"/>
				<line class="st5" x1="948.4" y1="135.9" x2="934.3" y2="150.1"/>
				<line class="st5" x1="957.4" y1="135.9" x2="943.3" y2="150.1"/>
				<line class="st5" x1="966.4" y1="135.9" x2="952.3" y2="150.1"/>
				<line class="st5" x1="975.4" y1="135.9" x2="961.2" y2="150.1"/>
				<line class="st5" x1="984.4" y1="135.9" x2="970.2" y2="150.1"/>
				<line class="st5" x1="993.4" y1="135.9" x2="979.2" y2="150.1"/>
				<line class="st5" x1="1002.4" y1="135.9" x2="988.2" y2="150.1"/>
				<line class="st5" x1="1011.4" y1="135.9" x2="997.2" y2="150.1"/>
				<line class="st5" x1="1020.4" y1="135.9" x2="1006.2" y2="150.1"/>
				<line class="st5" x1="1029.4" y1="135.9" x2="1015.2" y2="150.1"/>
				<line class="st5" x1="1038.3" y1="135.9" x2="1024.2" y2="150.1"/>
				<line class="st5" x1="1047.3" y1="135.9" x2="1033.2" y2="150.1"/>
				<line class="st5" x1="1056.3" y1="135.9" x2="1042.2" y2="150.1"/>
				<line class="st5" x1="1065.3" y1="135.9" x2="1051.2" y2="150.1"/>
				<line class="st5" x1="1074.3" y1="135.9" x2="1060.2" y2="150.1"/>
				<line class="st5" x1="1083.3" y1="135.9" x2="1069.1" y2="150.1"/>
				<line class="st5" x1="1092.3" y1="135.9" x2="1078.1" y2="150.1"/>
				<line class="st5" x1="1101.3" y1="135.9" x2="1087.1" y2="150.1"/>
				<line class="st5" x1="1110.3" y1="135.9" x2="1096.1" y2="150.1"/>
				<line class="st5" x1="1119.3" y1="135.9" x2="1105.1" y2="150.1"/>
				<line class="st5" x1="1128.3" y1="135.9" x2="1114.1" y2="150.1"/>
				<line class="st5" x1="1137.3" y1="135.9" x2="1123.1" y2="150.1"/>
			</g>
		</g>
	</g>
</g>
</svg>
