<?xml version="1.0" encoding="utf-8"?>
<!-- Generator: Adobe Illustrator 19.2.0, SVG Export Plug-In . SVG Version: 6.00 Build 0)  -->
<svg version="1.1" xmlns="http://www.w3.org/2000/svg" xmlns:xlink="http://www.w3.org/1999/xlink" x="0px" y="0px"
	 viewBox="0 0 1921.8 819.4" style="enable-background:new 0 0 1921.8 819.4;" xml:space="preserve">
<style type="text/css">
	.st0{fill:#FFFFFF;}
	.st1{fill:#203B90;}
	.st2{fill:none;}
	.st3{fill:#E5007E;}
	.st4{font-family:'FranklinGothic-Heavy';}
	.st5{font-size:148.3152px;}
	.st6{fill:none;stroke:#1D1D1B;stroke-width:1.0196;stroke-miterlimit:10;}
	.st7{fill:#1D1D1B;}
	.st8{font-family:'HurufMiranti';}
	.st9{font-size:98.4148px;}
	.st10{clip-path:url(#SVGID_2_);}
</style>
<g id="Layer_1">
</g>
<g id="guides">
	<rect y="-10.5" class="st0" width="1944.5" height="468.4"/>
	<rect x="-47.5" y="430.6" class="st1" width="2017.3" height="398.2"/>
	<rect x="137.6" y="332" class="st2" width="1646.3" height="118.6"/>
	<text transform="matrix(1 0 0 1 703.9031 430.9516)" class="st3 st4 st5">FAKE IT</text>
	<line class="st6" x1="-41.5" y1="430.6" x2="1963.8" y2="430.6"/>
	<rect x="137.5" y="367.1" class="st2" width="1646.8" height="93.6"/>
	<text transform="matrix(1 0 0 1 717.4167 435.6552)" class="st7 st8 st9">until you make it</text>
	<g>
		<g>
			<path class="st6" d="M773.6,331.6H728v-26.1c0-12.5,10.3-22.8,22.8-22.8h0c12.5,0,22.8,10.3,22.8,22.8V331.6z"/>
			<circle class="st6" cx="750.8" cy="305.5" r="19.8"/>
			<g>
				<path class="st6" d="M767.6,294.8c-6.9,6.9-11.6,2.2-18.5,9.1s-2.2,11.6-9.1,18.5"/>
			</g>
			<line class="st6" x1="750" y1="282.7" x2="750" y2="273.3"/>
			<circle class="st6" cx="750" cy="276.4" r="1.2"/>
		</g>
		<g>
			<g>
				<path class="st6" d="M845.2,135.2c0.9-1,1.5-2.3,1.5-3.7c0-3-2.4-5.4-5.4-5.4s-5.4,2.4-5.4,5.4c0,1.9,1,3.5,2.4,4.5l1.7,0.8"/>
				<path class="st6" d="M838.5,153.5h-27c-3,0-3.9-4.2-1.1-5.3l28.1-11.9l28.1,11.9c2.8,1.2,1.9,5.3-1.1,5.3H838.5z"/>
			</g>
			<path class="st6" d="M813.9,206.5c0-2-1.6-3.7-3.7-3.7h-3.4h-4.5h-10.8v15.4c0,4.2,3.4,7.7,7.7,7.7l0,0c4.2,0,7.7-3.4,7.7-7.7v-8
				h3.4C812.2,210.2,813.9,208.6,813.9,206.5L813.9,206.5z"/>
			<rect x="791.4" y="168.9" class="st6" width="15.7" height="33.9"/>
			
				<rect x="803.8" y="156.8" transform="matrix(4.567794e-11 1 -1 4.567794e-11 972.7772 -650.358)" class="st6" width="15.5" height="8.9"/>
			<path class="st6" d="M807.1,168.9l-15.7,0c0-8.6,6.9-15.5,15.5-15.5h0.6"/>
			<path class="st6" d="M863.5,206.5c0-2,1.6-3.7,3.7-3.7h3.4h4.5H886v15.4c0,4.2-3.4,7.7-7.7,7.7l0,0c-4.2,0-7.7-3.4-7.7-7.7v-8
				h-3.4C865.2,210.2,863.5,208.6,863.5,206.5L863.5,206.5z"/>
			
				<rect x="870.3" y="168.9" transform="matrix(-1 -4.480872e-11 4.480872e-11 -1 1756.2648 371.8036)" class="st6" width="15.7" height="33.9"/>
			
				<rect x="858.1" y="156.8" transform="matrix(-9.047536e-11 1 -1 -9.047536e-11 1027.0391 -704.62)" class="st6" width="15.5" height="8.9"/>
			<path class="st6" d="M870.3,168.9l15.7,0c0-8.6-6.9-15.5-15.5-15.5h-0.6"/>
			<path class="st6" d="M861.4,153.7v134.8c0,0,0,4.1,2,6.1"/>
			<polyline class="st6" points="816,287.2 816,153.5 861.4,153.5 			"/>
			<path class="st6" d="M856.6,287.8l7.6,7.6c4.6,4.6,4.6,12.2,0,16.8l-4.4,4.4l-19.4-19.4v-64.3H837v58.8"/>
			<g>
				<polyline class="st6" points="841.8,295.9 841,300.6 845.7,299.7 844.9,304.4 849.5,303.6 848.7,308.3 853.4,307.5 852.6,312.2 
					857.3,311.4 856.5,316.1 861.2,315.3 				"/>
			</g>
			<path class="st6" d="M816,271.6v16.8c0,0,0,4.1-2,6.1"/>
			<path class="st6" d="M820.8,287.8l-7.6,7.6c-4.6,4.6-4.6,12.2,0,16.8l4.4,4.4l19.4-19.4v-23.1"/>
			<g>
				<polyline class="st6" points="816.3,315.3 821,316.1 820.2,311.4 824.9,312.2 824.1,307.5 828.7,308.3 827.9,303.6 832.6,304.4 
					831.8,299.8 836.5,300.6 835.7,295.9 				"/>
			</g>
			<path class="st6" d="M861.4,277L861.4,277c-6.8,2.5-14.2,2.5-21,0l0,0"/>
			<path class="st6" d="M861.4,274.1L861.4,274.1c-6.8,2.5-14.2,2.5-21,0v0"/>
			<path class="st6" d="M816.1,277L816.1,277c6.8,2.5,14.2,2.5,21,0l0,0"/>
			<path class="st6" d="M816.1,274.1L816.1,274.1c6.8,2.5,14.2,2.5,21,0v0"/>
			<path class="st6" d="M824.6,150.3c-1.7,0-3.1,1.4-3.1,3.1h6.3C827.7,151.7,826.3,150.3,824.6,150.3z"/>
			<path class="st6" d="M853.3,150.3c-1.7,0-3.1,1.4-3.1,3.1h6.3C856.5,151.7,855,150.3,853.3,150.3z"/>
			<line class="st6" x1="850.4" y1="147.8" x2="851.8" y2="149.3"/>
			<line class="st6" x1="856.3" y1="147.8" x2="854.8" y2="149.3"/>
			<line class="st6" x1="821.6" y1="147.8" x2="823.1" y2="149.3"/>
			<line class="st6" x1="827.6" y1="147.8" x2="826.1" y2="149.3"/>
			<line class="st6" x1="831.3" y1="172.4" x2="832.8" y2="173.9"/>
			<line class="st6" x1="837.2" y1="172.4" x2="835.7" y2="173.9"/>
			<line class="st6" x1="843.7" y1="179.8" x2="842.2" y2="178.3"/>
			<line class="st6" x1="837.7" y1="179.8" x2="839.2" y2="178.3"/>
			<path class="st6" d="M886,180.1c-3.2,0-5.8,2.6-5.8,5.8s2.6,5.8,5.8,5.8V180.1z"/>
			<path class="st6" d="M861.4,240.4c-5.5,0-9.9,4.4-9.9,9.9c0,5.5,4.4,9.9,9.9,9.9V240.4z"/>
			<path class="st6" d="M816,260.3c5.5,0,9.9-4.4,9.9-9.9c0-5.5-4.4-9.9-9.9-9.9V260.3z"/>
			<path class="st6" d="M791.4,191.7c3.2,0,5.8-2.6,5.8-5.8c0-3.2-2.6-5.8-5.8-5.8V191.7z"/>
			<path class="st6" d="M852.1,212.5h-25.6c-1.9,0-3.4-1.5-3.4-3.4v-36.7c0-1.9,1.5-3.4,3.4-3.4h25.6c1.9,0,3.4,1.5,3.4,3.4V209
				C855.5,210.9,854,212.5,852.1,212.5z"/>
			<line class="st6" x1="845.8" y1="168.9" x2="845.8" y2="212.5"/>
			<line class="st6" x1="847.1" y1="174.5" x2="854.1" y2="174.5"/>
			<line class="st6" x1="847.1" y1="172.7" x2="854.1" y2="172.7"/>
			<line class="st6" x1="847.1" y1="170.9" x2="853.2" y2="170.9"/>
			<line class="st6" x1="847.1" y1="176.3" x2="854.1" y2="176.3"/>
			<line class="st6" x1="847.1" y1="178.2" x2="854.1" y2="178.2"/>
			<line class="st6" x1="847.1" y1="180.1" x2="854.1" y2="180.1"/>
			<line class="st6" x1="847.1" y1="181.9" x2="854.1" y2="181.9"/>
			<line class="st6" x1="847.1" y1="183.8" x2="854.1" y2="183.8"/>
			<line class="st6" x1="847.1" y1="185.7" x2="854.1" y2="185.7"/>
			<line class="st6" x1="847.1" y1="187.6" x2="854.1" y2="187.6"/>
			<line class="st6" x1="847.1" y1="189.4" x2="854.1" y2="189.4"/>
			<line class="st6" x1="847.1" y1="191.3" x2="854.1" y2="191.3"/>
			<line class="st6" x1="847.1" y1="193.2" x2="854.1" y2="193.2"/>
			<line class="st6" x1="847.1" y1="195" x2="854.1" y2="195"/>
			<line class="st6" x1="847.1" y1="196.9" x2="854.1" y2="196.9"/>
			<line class="st6" x1="847.1" y1="198.8" x2="854.1" y2="198.8"/>
			<path class="st6" d="M851.9,210.5h-4.4v-11.7h6.4v9.8C853.8,209.6,852.9,210.5,851.9,210.5z"/>
			<circle class="st6" cx="827.8" cy="175.8" r="1.4"/>
			<circle class="st6" cx="834.2" cy="175.8" r="1.4"/>
			<circle class="st6" cx="840.7" cy="175.8" r="1.4"/>
			<line class="st6" x1="831.3" y1="202.9" x2="832.8" y2="204.4"/>
			<line class="st6" x1="837.2" y1="202.9" x2="835.7" y2="204.4"/>
			<line class="st6" x1="843.7" y1="210.3" x2="842.2" y2="208.8"/>
			<line class="st6" x1="837.7" y1="210.3" x2="839.2" y2="208.8"/>
			<circle class="st6" cx="827.8" cy="206.3" r="1.4"/>
			<circle class="st6" cx="834.2" cy="206.3" r="1.4"/>
			<circle class="st6" cx="840.7" cy="206.3" r="1.4"/>
			<rect x="826.3" y="181.7" class="st6" width="15.8" height="8.1"/>
			<rect x="835.1" y="191.3" class="st6" width="7.1" height="8.1"/>
			<rect x="826.3" y="191.3" class="st6" width="7.1" height="8.1"/>
			<line class="st6" x1="791.4" y1="200.7" x2="807.1" y2="200.7"/>
			<line class="st6" x1="870.3" y1="200.7" x2="886" y2="200.7"/>
		</g>
		<g>
			<path class="st6" d="M973.1,210.4h-28.3c-1.9,0-3.4-1.5-3.4-3.4v-13.8c0-1.9,1.5-3.4,3.4-3.4h28.3c1.9,0,3.4,1.5,3.4,3.4V207
				C976.5,208.9,975,210.4,973.1,210.4z"/>
			<line class="st6" x1="958.9" y1="189.8" x2="958.9" y2="210.4"/>
			<line class="st6" x1="941.3" y1="196.9" x2="976.5" y2="196.9"/>
			<line class="st6" x1="941.3" y1="203.3" x2="976.5" y2="203.3"/>
			<path class="st6" d="M981.6,269.4L981.6,269.4c-6.8,2.5-14.2,2.5-21,0l0,0"/>
			<path class="st6" d="M957.2,269.4L957.2,269.4c-6.8,2.5-14.2,2.5-21,0l0,0"/>
			<g>
				<path class="st6" d="M965.4,135.2c0.9-1,1.5-2.3,1.5-3.7c0-3-2.4-5.4-5.4-5.4s-5.4,2.4-5.4,5.4c0,1.9,1,3.5,2.4,4.5l1.7,0.8"/>
				<path class="st6" d="M931.7,153.5c-3,0-3.9-4.2-1.1-5.3l28.1-11.9l28.1,11.9c2.8,1.2,1.9,5.3-1.1,5.3h-1.8"/>
			</g>
			<path class="st6" d="M987.1,168.9v52.4h15.7v-52.4h0c0-8.5-7-15.5-15.5-15.5h-0.6h-1.8"/>
			<path class="st6" d="M983.6,294.5c-2-2-2-6.1-2-6.1v-74.7l5.5-44.8"/>
			<path class="st6" d="M933.5,153.5h-3H930c-8.6,0-15.5,6.9-15.5,15.5h0v52.4h15.7v-52.4"/>
			<line class="st6" x1="930.2" y1="168.9" x2="931.8" y2="182.3"/>
			<polyline class="st6" points="936.2,287.8 936.2,213.7 931.3,178.4 			"/>
			<polyline class="st6" points="960.6,297.2 960.6,232.9 957.2,232.9 957.2,297.2 			"/>
			<path class="st6" d="M960.6,297.2l19.4,19.4l4.4-4.4c4.6-4.6,4.6-12.2,0-16.8l-7.6-7.6"/>
			<g>
				<path class="st6" d="M936.2,262.2v26.3c0,0,0,4.1-2,6.1"/>
				<path class="st6" d="M957.2,297.2l-19.4,19.4l-4.4-4.4c-4.6-4.6-4.6-12.2,0-16.8l7.6-7.6"/>
			</g>
			<path class="st6" d="M930.6,150.1c-0.8,0.3-1.5,0.8-2.1,1.5c-0.4,0.5-0.8,1.2-0.8,1.9"/>
			<path class="st6" d="M948.5,157.6c0,0,0.4-2.6-1.1-5.3c-0.9-1.6-2.7-2.6-4.5-2.6h-10.4c-0.6,0-1.3,0.1-1.9,0.3"/>
			<path class="st6" d="M943.2,157.6c0,0,0.4-2.6-1.1-5.3c-0.9-1.6-2.7-2.6-4.5-2.6h-5.9"/>
			<path class="st6" d="M934.1,157.6c0,0,0.4-2.6-1.1-5.3c-0.6-1.1-1.5-1.8-2.7-2.2"/>
			<path class="st6" d="M974.2,157.6c0,0-0.4-2.6,1.1-5.3c0.9-1.6,2.7-2.6,4.5-2.6h5.9"/>
			<path class="st6" d="M983.3,157.6c0,0-0.4-2.6,1.1-5.3c0.6-1.1,1.5-1.8,2.7-2.2"/>
			<path class="st6" d="M969.3,157.6c0,0-0.4-2.6,1.1-5.3c0.9-1.6,2.7-2.6,4.5-2.6h10.4c1.5,0,3,0.6,4,1.8c0.4,0.5,0.8,1.2,0.8,1.9"
				/>
			<line class="st6" x1="932.6" y1="157.6" x2="984.9" y2="157.6"/>
			<path class="st6" d="M936.2,282.3c-1.5,2.2-3.1,4.2-6,4.2c-6.8,0-6.8-10.9-13.6-10.9h-0.1c12.6-17.4,6-32.7,2.2-42.7
				c-2.9-7.6-1.3-11.5-1.3-11.5"/>
			<path class="st6" d="M981.6,275.8c12.6-17.4,6-32.7,2.2-42.7c-1-2.7-2-5-2.2-6.7v-2.7"/>
			<path class="st6" d="M960.7,285.4c-0.9,0.6-1.9,1-3.2,1"/>
			<line class="st6" x1="936.2" y1="213.7" x2="981.6" y2="213.7"/>
			<rect x="954.9" y="213.7" class="st6" width="7.6" height="3.1"/>
			<polyline class="st6" points="957.2,232.9 936.2,223.1 936.2,216.9 981.6,216.9 981.6,223.1 960.6,232.9 			"/>
			<polygon class="st0" points="955.1,188.3 958.9,192.6 961.9,189.2 			"/>
			<g>
				<polyline class="st6" points="945.9,161.2 974,161.2 980.7,168 958.9,192.6 937.1,168 943.8,161.2 971.7,161.2 				"/>
				<path class="st6" d="M974.6,161.8v7.3h-10.4c0,0,0-4.2-7.1-4.2c-7.1,0-6.9,4.5-6.9,4.5s-0.6,2.9,7,2.9c1.5,0,2.5,0,3.3,0
					c1.4,0,1.9,0,2.1,0c0.1,0,0.2,0,0.3,0c3.8,0,7.5,0.6,8.5,3.4c0,0,0.4,0.9,0.6,2.1"/>
				<path class="st6" d="M974,161.2h-2.3h-3.2v4c0,0,0,0.1,0,0.1c0,0,0,0,0-0.1c-1-3.6-4.1-4-4.8-4c-0.1,0-0.1,0-0.1,0
					s-7.1,0-13.3,0c-0.1,0-0.2,0-0.2,0c-6.1,0.1-10.2,5.2-8.5,10.7c0.2,0.7,0.5,1.4,0.9,1.9v0c0.3,0.4,0.6,0.8,1,1.1c0,0,0,0,0,0
					l0,0c2.7,2.4,6.9,2.3,6.9,2.3s9.6,0,10.9,0s3.7,0.5,3.3,2.4s-3,2.7-5.5,2.3c-3.4-0.6-5.8-3.2-5.8-3.2l-3.3,3.5l2.4,2.7
					c5.8,3.2,10.3,2.2,12.2,1.5"/>
			</g>
		</g>
		<g>
			<path class="st6" d="M1103.2,159v56.3h16.4V159h0c0-8.9-7.2-16.1-16.1-16.1h-0.6h-6.4"/>
			<path class="st6" d="M1063.8,142.9h-8.9h-0.6c-8.9,0-16.1,7.2-16.1,16.1h0v56.3h16.4V159"/>
			<polyline class="st6" points="1070.6,147.5 1086.9,147.5 1087.1,147.5 			"/>
			<path class="st6" d="M1050.6,215.3v8.7v8.1c0,9.3,4.5,17.6,11.5,22.7"/>
			<path class="st6" d="M1106.9,215.3v8.7v8.1c0,9.2-4.4,17.4-11.2,22.5"/>
			<path class="st6" d="M1070.6,147.5v18.7v26.5v8.9v2.4c0,8-4.7,14.9-11.4,18.1c-2.6,1.2-5.5,1.9-8.6,1.9v-8.7"/>
			<path class="st6" d="M1087.1,147.5h-0.3v18.9v35.2v2.4c0,8.1,4.8,15.1,11.7,18.2c2.6,1.2,5.4,1.8,8.4,1.8v-8.7"/>
			<g>
				<path class="st6" d="M1064.6,142.9h-8.3v37c0,9.4,5.7,18,14.4,21.6h0v-58.6v-4.8L1064.6,142.9z"/>
				<path class="st6" d="M1093.2,142.9h8.3v37c0,9.4-5.7,18-14.4,21.6h0v-58.6v-4.8L1093.2,142.9z"/>
			</g>
			<polyline class="st6" points="1070.6,166.2 1078.7,171.7 1087.1,166.2 			"/>
			<polyline class="st6" points="1059.2,222.1 1065.1,294.5 1078.9,294.5 1078.9,223.2 			"/>
			<path class="st6" d="M1064.3,285.7c0,0,5.6-2.9,14.6,0"/>
			<polyline class="st6" points="1098.5,222.1 1092.6,294.5 1078.9,294.5 1078.9,223.2 			"/>
			<path class="st6" d="M1093.4,285.7c0,0-5.6-2.9-14.6,0"/>
			<line class="st6" x1="1070.6" y1="201.6" x2="1087.1" y2="201.6"/>
			<g>
				<path class="st6" d="M1085.6,135.3c0.9-1,1.5-2.3,1.5-3.7c0-3-2.4-5.4-5.4-5.4s-5.4,2.4-5.4,5.4c0,1.9,1,3.5,2.4,4.5l1.7,0.8"/>
				<polyline class="st6" points="1070.6,139.9 1078.9,136.4 1087.1,139.9 				"/>
			</g>
		</g>
		<g>
			<g>
				<path class="st6" d="M1198.2,306.2h-34.4c-1.3,0-2.3-1.1-2.3-2.3l0,0c0-1.3,1.1-2.3,2.3-2.3h34.4c1.3,0,2.3,1.1,2.3,2.3l0,0
					C1200.6,305.1,1199.5,306.2,1198.2,306.2z"/>
				<path class="st6" d="M1194.7,306.2l2.6,25.3c0,0.1,0,0.1-0.1,0.1h-15.5h-0.6h-15.5c-0.1,0-0.1-0.1-0.1-0.1l2.6-25.3"/>
				<line class="st6" x1="1167.7" y1="309.5" x2="1195" y2="309.5"/>
				<path class="st6" d="M1174.8,301.5c0.2-1.9,1.1-3.5,2.3-4.8c-1.2-1.7-7.1-11-8-19.9c-1-9.9,2.2-14.1,2.2-14.1s7.4,3.5,9.3,12.7
					c1.7,8.1,1.8,16.8,1.8,18.8c0.2,0,0.4,0,0.6,0c0.2,0,0.4,0,0.6,0c0-2,0.1-10.8,1.8-18.8c1.9-9.2,9.3-12.7,9.3-12.7
					s3.2,4.3,2.2,14.1c-0.9,8.8-6.8,18-8,19.8c1.3,1.3,2.1,3,2.4,4.8"/>
			</g>
			<polyline class="st6" points="1172.1,301.5 1166.8,288.9 1164.3,283.3 1159.9,285.2 1162.2,290.5 1162.3,290.9 1166.9,301.5 			
				"/>
			<line class="st6" x1="1166.7" y1="288.9" x2="1162.3" y2="290.9"/>
		</g>
		<circle class="st6" cx="841.2" cy="131.4" r="3.3"/>
		<circle class="st6" cx="961.4" cy="131.4" r="3.3"/>
		<circle class="st6" cx="1081.5" cy="131.4" r="3.3"/>
		<line class="st6" x1="843.5" y1="129.1" x2="838.9" y2="133.7"/>
		<line class="st6" x1="963.7" y1="129.1" x2="959.1" y2="133.7"/>
		<line class="st6" x1="1083.8" y1="129.1" x2="1079.2" y2="133.7"/>
		<path class="st6" d="M1134.1,114.8H788.5c-1.4,0-2.6-1.2-2.6-2.6l0,0c0-1.4,1.2-2.6,2.6-2.6h345.7c1.4,0,2.6,1.2,2.6,2.6l0,0
			C1136.8,113.6,1135.6,114.8,1134.1,114.8z"/>
		<g>
			<defs>
				<path id="SVGID_1_" d="M1134.1,114.8H788.5c-1.4,0-2.6-1.2-2.6-2.6l0,0c0-1.4,1.2-2.6,2.6-2.6h345.7c1.4,0,2.6,1.2,2.6,2.6l0,0
					C1136.8,113.6,1135.6,114.8,1134.1,114.8z"/>
			</defs>
			<clipPath id="SVGID_2_">
				<use xlink:href="#SVGID_1_"  style="overflow:visible;"/>
			</clipPath>
			<g class="st10">
				<line class="st6" x1="774" y1="102.3" x2="759.6" y2="116.7"/>
				<line class="st6" x1="783.2" y1="102.3" x2="768.7" y2="116.7"/>
				<line class="st6" x1="792.3" y1="102.3" x2="777.9" y2="116.7"/>
				<line class="st6" x1="801.5" y1="102.3" x2="787.1" y2="116.7"/>
				<line class="st6" x1="810.7" y1="102.3" x2="796.2" y2="116.7"/>
				<line class="st6" x1="819.8" y1="102.3" x2="805.4" y2="116.7"/>
				<line class="st6" x1="829" y1="102.3" x2="814.6" y2="116.7"/>
				<line class="st6" x1="838.2" y1="102.3" x2="823.7" y2="116.7"/>
				<line class="st6" x1="847.3" y1="102.3" x2="832.9" y2="116.7"/>
				<line class="st6" x1="856.5" y1="102.3" x2="842.1" y2="116.7"/>
				<line class="st6" x1="865.7" y1="102.3" x2="851.2" y2="116.7"/>
				<line class="st6" x1="874.8" y1="102.3" x2="860.4" y2="116.7"/>
				<line class="st6" x1="884" y1="102.3" x2="869.6" y2="116.7"/>
				<line class="st6" x1="893.2" y1="102.3" x2="878.7" y2="116.7"/>
				<line class="st6" x1="902.3" y1="102.3" x2="887.9" y2="116.7"/>
				<line class="st6" x1="911.5" y1="102.3" x2="897.1" y2="116.7"/>
				<line class="st6" x1="920.7" y1="102.3" x2="906.2" y2="116.7"/>
				<line class="st6" x1="929.8" y1="102.3" x2="915.4" y2="116.7"/>
				<line class="st6" x1="939" y1="102.3" x2="924.6" y2="116.7"/>
				<line class="st6" x1="948.2" y1="102.3" x2="933.7" y2="116.7"/>
				<line class="st6" x1="957.3" y1="102.3" x2="942.9" y2="116.7"/>
				<line class="st6" x1="966.5" y1="102.3" x2="952.1" y2="116.7"/>
				<line class="st6" x1="975.7" y1="102.3" x2="961.2" y2="116.7"/>
				<line class="st6" x1="984.9" y1="102.3" x2="970.4" y2="116.7"/>
				<line class="st6" x1="994" y1="102.3" x2="979.6" y2="116.7"/>
				<line class="st6" x1="1003.2" y1="102.3" x2="988.7" y2="116.7"/>
				<line class="st6" x1="1012.4" y1="102.3" x2="997.9" y2="116.7"/>
				<line class="st6" x1="1021.5" y1="102.3" x2="1007.1" y2="116.7"/>
				<line class="st6" x1="1030.7" y1="102.3" x2="1016.3" y2="116.7"/>
				<line class="st6" x1="1039.9" y1="102.3" x2="1025.4" y2="116.7"/>
				<line class="st6" x1="1049" y1="102.3" x2="1034.6" y2="116.7"/>
				<line class="st6" x1="1058.2" y1="102.3" x2="1043.8" y2="116.7"/>
				<line class="st6" x1="1067.4" y1="102.3" x2="1052.9" y2="116.7"/>
				<line class="st6" x1="1076.5" y1="102.3" x2="1062.1" y2="116.7"/>
				<line class="st6" x1="1085.7" y1="102.3" x2="1071.3" y2="116.7"/>
				<line class="st6" x1="1094.9" y1="102.3" x2="1080.4" y2="116.7"/>
				<line class="st6" x1="1104" y1="102.3" x2="1089.6" y2="116.7"/>
				<line class="st6" x1="1113.2" y1="102.3" x2="1098.8" y2="116.7"/>
				<line class="st6" x1="1122.4" y1="102.3" x2="1107.9" y2="116.7"/>
				<line class="st6" x1="1131.5" y1="102.3" x2="1117.1" y2="116.7"/>
				<line class="st6" x1="1140.7" y1="102.3" x2="1126.3" y2="116.7"/>
			</g>
		</g>
	</g>
</g>
</svg>
