<?xml version="1.0" encoding="utf-8"?>
<!-- Generator: Adobe Illustrator 19.1.0, SVG Export Plug-In . SVG Version: 6.00 Build 0)  -->
<svg version="1.1" id="Layer_1" xmlns="http://www.w3.org/2000/svg" xmlns:xlink="http://www.w3.org/1999/xlink" x="0px" y="0px"
	 viewBox="0 0 341.2 49.1" style="enable-background:new 0 0 341.2 49.1;" xml:space="preserve">
<style type="text/css">
	.st0{fill:#203B90;}
</style>
<g>
	<path d="M86.1,38.2h-3.3v-17h-2.7v-2.9h2.7v-2.7c0-3.9,2-6.2,5.5-6.2c0.2,0,0.6,0,0.9,0v2.9c-2.4,0.3-3,0.9-3.1,3.3v2.7h3.1v2.9
		h-3.1V38.2z"/>
	<path d="M111.7,28.3c0,5.8-4.5,10.3-10.2,10.3c-5.9,0-10-4.3-10-10.4c0-6.2,4.1-10.4,10.2-10.4C107.5,17.9,111.7,22.2,111.7,28.3z
		 M94.9,28.3c0,4.4,2.7,7.4,6.8,7.4c3.9,0,6.7-3.1,6.7-7.4c0-4.4-2.7-7.4-6.7-7.4C97.6,20.9,94.9,23.9,94.9,28.3z"/>
	<path d="M119.4,18.3v3.4c0.6-1.4,1-2,1.8-2.6c1-0.8,2.4-1.2,3.8-1.2h0.8v3.3c-0.3,0-0.7,0-0.9,0c-1.8,0-3.3,0.8-4.3,2.3
		c-0.9,1.2-1.2,2.4-1.2,4.7v10.1h-3.3V18.3H119.4z"/>
	<path d="M132.7,18.3v2.8c1.5-2.3,3.2-3.2,5.6-3.2c2.7,0,4.4,1.2,5.3,3.6c1.5-2.5,3.3-3.6,6.3-3.6c2.3,0,4,0.7,5,2.1
		c0.9,1.2,1.2,2.4,1.2,5.5v12.7H153V26.3c0-2.4-0.1-3-0.6-3.8c-0.6-1-1.9-1.7-3.4-1.7c-2.9,0-4.5,1.9-4.5,5.5v11.9h-3.3V26.3
		c0-1.9-0.2-2.9-0.6-3.8c-0.6-1.1-1.8-1.7-3.2-1.7c-2.9,0-4.6,2.1-4.6,5.5v11.9h-3.3V18.3H132.7z"/>
	<path d="M166.8,38.2h-2.2V20.4h-3v-2h3v-3.5c0-1.8,0.4-3.1,1.2-4c0.9-0.9,2.2-1.5,3.5-1.5c0.2,0,0.4,0,0.8,0v1.8
		c-2.6,0.3-3.3,1-3.4,3.6v3.5h3.4v2h-3.4V38.2z"/>
	<path d="M189.8,21.5c1.5,1.9,2.2,4,2.2,6.8c0,5.8-4.3,10.3-9.8,10.3c-2.9,0-5.7-1.3-7.5-3.4c-1.4-1.6-2.2-4.1-2.2-6.9
		c0-3.2,0.9-5.7,2.9-7.5c1.8-1.7,4.3-2.7,6.9-2.7C185.3,18,188,19.3,189.8,21.5z M174.8,28.3c0,4.9,3,8.2,7.5,8.2
		c4.4,0,7.5-3.4,7.5-8.2c0-2.7-0.7-4.7-2.2-6.1c-1.3-1.3-3.3-2.1-5.2-2.1C177.8,20.1,174.8,23.4,174.8,28.3z"/>
	<path d="M199.6,18.4V22c0.6-1.4,1.1-2,1.9-2.6c1-0.8,2.5-1.3,4-1.3h0.9v2.1h-0.7c-3.7,0-6.2,3.2-6,7.7v10.3h-2.2V18.4H199.6z"/>
	<path d="M216.5,34.1c0,1,0.3,1.2,1.5,1.2h1.5v2.8h-3.1c-2.3,0-3.2-0.9-3.2-3.1V21.2h-2.8v-2.9h2.8v-6.2h3.3v6.2h3v2.9h-3V34.1z"/>
	<path d="M227.3,21.1c1.8-2.2,3.6-3.2,6-3.2c1.7,0,3.5,0.7,4.6,1.8c1.1,1.1,1.6,2.6,1.6,5.2v13.4h-3.3V25c0-2.7-1.3-4.2-3.7-4.2
		c-1.5,0-2.8,0.6-3.9,1.8c-1,1.1-1.3,2.1-1.3,4v11.6h-3.3V9.5h3.3V21.1z"/>
	<path d="M264,28.3c0,5.8-4.5,10.3-10.2,10.3c-5.9,0-10-4.3-10-10.4c0-6.2,4.1-10.4,10.2-10.4C259.8,17.9,264,22.2,264,28.3z
		 M247.2,28.3c0,4.4,2.7,7.4,6.8,7.4c3.9,0,6.7-3.1,6.7-7.4c0-4.4-2.7-7.4-6.7-7.4C249.9,20.9,247.2,23.9,247.2,28.3z"/>
	<path d="M283.9,18.3V31c0,2.7-0.5,4.2-2,5.6c-1.5,1.3-3.5,2.1-5.7,2.1c-2.2,0-4.3-0.8-5.7-2.1c-1.3-1.3-2-3.1-2-5.5V18.3h3.3V31
		c0,2.8,1.8,4.8,4.4,4.8c1.4,0,2.7-0.6,3.5-1.5c0.6-0.8,0.9-1.6,0.9-3.2V18.3H283.9z"/>
	<path d="M303.9,18.3h3.3v20c0,3.3-0.8,5.6-2.6,7.3c-1.8,1.7-4.3,2.6-7.3,2.6c-3.7,0-6.6-1.2-8.8-3.6l2.2-2.2
		c0.9,0.9,1.3,1.3,1.9,1.7c1.1,0.7,3,1.2,4.7,1.2c2.1,0,4-0.7,5.2-1.9c1-1.1,1.5-2.7,1.5-4.7v-4.2c-1.9,2.9-4.2,4.3-7.3,4.3
		c-5.3,0-9.2-4.4-9.2-10.3c0-3.2,1.2-6.2,3.1-8.1c1.6-1.6,3.7-2.3,6.3-2.3c3,0,5,1.1,7.1,3.9V18.3z M290.8,28.2
		c0,4.3,2.8,7.5,6.5,7.5c1.9,0,3.7-0.9,5-2.4c0.9-1,1.4-2.9,1.4-4.9c0-2.6-0.4-4-1.6-5.3c-1.2-1.3-3.1-2.2-4.8-2.2
		C293.5,20.9,290.8,23.9,290.8,28.2z"/>
	<path d="M316.1,21.1c1.8-2.2,3.6-3.2,6-3.2c1.7,0,3.5,0.7,4.6,1.8c1.1,1.1,1.6,2.6,1.6,5.2v13.4h-3.3V25c0-2.7-1.3-4.2-3.7-4.2
		c-1.5,0-2.8,0.6-3.9,1.8c-1,1.1-1.3,2.1-1.3,4v11.6h-3.3V9.5h3.3V21.1z"/>
	<path d="M338.2,34.1c0,1,0.3,1.2,1.5,1.2h1.5v2.8h-3.1c-2.3,0-3.2-0.9-3.2-3.1V21.2h-2.8v-2.9h2.8v-6.2h3.3v6.2h3v2.9h-3V34.1z"/>
</g>
<path class="st0" d="M59.2,21.4c0-3.6-1.8-6.9-4.8-8.9c-2.6-6-8.5-9.8-15.1-9.8c0,0-0.1,0-0.1,0c-1.7,0-3.4,0.3-4.9,0.8
	C31.4,1.2,27.9,0,24.2,0c0,0-0.1,0-0.1,0C18.3,0,12.9,3.2,10,8.2c-5.5,0.5-9.8,5.3-9.8,10.9c0,1.5,0.3,3,1,4.4C0.4,25,0,26.7,0,28.4
	c0,6,4.9,10.8,10.9,10.8c0,0,0,0,0.1,0c1.8,0,3.6-0.5,5.2-1.4c1.9,3,5.2,4.8,8.7,4.8c5.7,0,10.4-4.7,10.4-10.4c0-1.7-0.4-3.5-1.3-5
	l-0.4-0.7l-13.2,0c0,0,0,0,0,0c-2.5,0-4.6-2-4.6-4.6c0-1.2,0.5-2.4,1.3-3.3c0.9-0.9,2-1.4,3.2-1.4l16.3,0l4.2,2.6v3.9L37,26.3
	c-0.6,0.4-0.8,1.2-0.4,1.9c0.3,0.4,0.7,0.6,1.1,0.6c0.3,0,0.5-0.1,0.7-0.2l4.7-3l4.1-2.6c0.4-0.3,0.6-0.7,0.6-1.1s-0.2-0.9-0.6-1.1
	l-3.7-2.3l-5.7-3.6l-0.4-0.2l-0.4,0l-16.7,0c-2,0-3.8,0.8-5.2,2.2c-1.4,1.4-2.1,3.2-2.1,5.2c0,4,3.3,7.3,7.3,7.3c0,0,0,0,0,0l11.6,0
	c0.4,0.9,0.6,1.9,0.6,3c0,4.2-3.4,7.7-7.7,7.7c-3,0-5.8-1.8-7-4.6l-0.7-1.6l-1.4,1.1l0,0c-1.4,1.1-3.1,1.7-4.9,1.7c0,0,0,0-0.1,0
	c-4.5,0-8.1-3.6-8.2-8.1c0-1.5,0.4-2.9,1.1-4.2l0.4-0.7l-0.4-0.7c-0.6-1.2-1-2.4-1-3.8c0-4.4,3.5-8.1,7.9-8.2l0.8,0l0.4-0.7
	c2.4-4.6,7-7.4,12.1-7.4c3.3,0,6.5,1.1,9,3.2l0.6,0.5l0.7-0.3c1.5-0.6,3.1-0.9,4.7-0.9c5.7,0,10.7,3.3,12.8,8.6l0.2,0.4l0.4,0.2
	c2.4,1.5,3.9,4.1,3.9,6.9c0,2.8-1.4,5.3-3.7,6.9l-0.7,0.5l0.1,0.9c0.1,0.5,0.1,0.9,0.1,1.3c0,4-3,7.5-6.9,8.1l-1.1,0.2l0,1.1l0,5.7
	c-3.2-1.1-5.8-3.2-7.8-6.4c-0.4-0.6-1.2-0.8-1.9-0.4c-0.6,0.4-0.8,1.2-0.4,1.9c2.7,4.3,6.4,7,11.1,8c0,0,0,0,0.1,0c0,0,0,0,0,0
	c0.1,0,0.2,0,0.2,0c0,0,0,0,0,0c0,0,0,0,0,0c0,0,0.1,0,0.1,0c0,0,0.1,0,0.1,0c0.6-0.1,1.1-0.7,1.1-1.3l0-6.3
	c4.7-1.2,8.1-5.6,8.1-10.6c0-0.3,0-0.5,0-0.8C57.7,28,59.2,24.8,59.2,21.4z"/>
</svg>
