<?xml version="1.0" encoding="utf-8"?>
<!-- Generator: Adobe Illustrator 19.1.0, SVG Export Plug-In . SVG Version: 6.00 Build 0)  -->
<svg version="1.1" id="Layer_1" xmlns="http://www.w3.org/2000/svg" xmlns:xlink="http://www.w3.org/1999/xlink" x="0px" y="0px"
	 viewBox="0 0 1280 583.4" style="enable-background:new 0 0 1280 583.4;" xml:space="preserve">
<style type="text/css">
	.st0{fill:#F8AA2D;}
	.st1{fill:#3B6DB4;}
	.st2{fill:#66B32E;}
	.st3{fill:#FFFFFF;}
	.st4{fill:#50BDC3;}
	.st5{fill:#314697;}
	.st6{fill:none;stroke:#FFFFFF;stroke-width:10.4679;stroke-miterlimit:10;}
	.st7{fill:none;stroke:#000000;stroke-width:0.7921;stroke-miterlimit:10;}
	.st8{fill-opacity:0.1;}
	.st9{fill:#212121;}
	.st10{fill:#525251;}
	.st11{fill:#78467B;}
	.st12{fill:none;stroke:#FFFFFF;stroke-width:8.367;stroke-miterlimit:10;}
	.st13{fill:none;stroke:#FFFFFF;stroke-width:9;stroke-miterlimit:10;}
	.st14{fill:none;stroke:#FFFFFF;stroke-width:7;stroke-miterlimit:10;}
</style>
<rect y="0" class="st0" width="1280" height="583.4"/>
<path d="M930.6,358.7l-36.8,13.1c-22,7.8-38.2,26.7-42.5,49.6l-9.2,48.7l-21.9,140h433.8c0,0-40.8-166-63-195.2
	c-9.5-12.5-19.8-22.9-31.9-27.8l-50.2-20.2c0,0-26.2-15.6-33.3-52.4l-25.2,49.7l-40.7,14.5l-38.4-11.2l-45.7,1.8L930.6,358.7z"/>
<path class="st1" d="M1031.8,292.4l-1.1,0.8c-1.9,11.9-5,23-8.8,33.5h-10.2l-13.7-88c5.9,0.6,11.4,2.3,16.3,5.7
	C1030.2,255.4,1032.7,274.9,1031.8,292.4z"/>
<path class="st1" d="M1124,225.8c-0.7,4.5-1.5,9-2.6,13.4C1122.8,232,1123.8,227.1,1124,225.8z"/>
<path class="st3" d="M912.5,337.9c0.2,0.1-0.1,2.9,0.1,3c0,0-0.6-1.5,0.5,1.5c0.6,1.6,2,5,3.7,5.5c0,0,4.9,19.2,8.9,23.2
	c3.5,3.5,8.6,6.4,19.6,5.6c4.5-0.3,12.2-1.2,16.6-2c3.9-0.6,9.8-0.7,12.1,4.3c3,6.4,9.7,24.3,9.7,24.3s61.1-24.3,77.1-45
	c16-20.7,17.6-25.1,18-70.4c0,0,3.2-11,3.5-24c0.3-13-8.7-19.7-16.3-16.3c-7.7,3.3-23.5,9.1-24.8,38.8l31.2-14.8
	c0,0-35.9-38.5-101.5-78c0,0-14.1-1.2-34.4-2.8s-43.4-9.9-46.7-11.7c-4.7-2.5-4.7-1.8-4.7-1.8s4.1,29.7,3.1,41.2
	c-0.5,6.1,8.8,8.8,11.8,14.4c0,0-2.8,20.6-0.3,29.7c1.8,6.2,5.4,11.2,0.8,23.9c-4.7,12.7-19.8,29-13.5,34c6.3,5,32.6-2,31.5,3.3
	c0,0,0.3,4.8-7.2,6.6"/>
<path class="st1" d="M1078.8,288c0,0-3.9,8.2-3.9,14c0,4,3.2,21.2,1.5,27.4c-1.7,6.3,10.2-32.6,10.2-32.6L1078.8,288z"/>
<path class="st3" d="M917.4,349.4c-6.7-4.4-4.9-9.8-4.9-9.8c-4-4.6-2.3-8.9-2.3-8.9s1.8-4,2-8.4c0.2-4.2,10-2.4,10-2.4l8.4,11.7
	l-8,17.1L917.4,349.4z"/>
<g>
	<path class="st11" d="M915,325.6h-20.5c-5.1,0-9.2-4.2-9.2-9.2l0,0c0-6.9,5.7-12.6,12.6-12.6H915c5.1,0,9.2,4.2,9.2,9.2v3.3
		C924.2,321.4,920.1,325.6,915,325.6z"/>
	<polygon class="st11" points="895.8,232.9 885.2,314.8 911,306 907.5,244.3 	"/>
</g>
<polygon class="st1" points="1048,244.3 1036.5,264.4 1036.5,301.1 1050,303.8 1100,265.4 1095.6,240.1 1070,230.7 "/>
<path class="st1" d="M1125,162h-24.8l-87.9,33l-127.1-21.9c0,0-10.3,19.4-5.8,57.7c0,0,0,0,0,0c0.5,4,1.1,8.2,1.9,12.7
	c0,0,23.4,17,84.3,10c1.3-0.1,2.5-0.3,3.6-0.5c1.7-0.3,3.3-0.6,4.7-1l0,0.1c0,0,25.7-5,37.8,3c23.2,15.2,19,38.1,19,38.1
	c-1.9,11.9-5,23-8.8,33.5c-24.5,66.8-80.6,103.5-80.6,103.5c6.5,2,12.9,3.7,19.2,5.1h0c63.7,14.3,114.3,0.6,142.9-26.6
	c24.7-23.4,20.6-55,10.6-89.1c-7.6-26,12.3-56.9,15.9-77.4l2.2-16.2C1136.9,193.9,1125,162,1125,162z"/>
<circle class="st4" cx="956.5" cy="304.5" r="19.4"/>
<ellipse transform="matrix(0.9995 -3.005689e-02 3.005689e-02 0.9995 -4.6407 30.2839)" class="st0" cx="1005" cy="169.5" rx="116.1" ry="38.8"/>
<ellipse transform="matrix(0.9995 -3.005689e-02 3.005689e-02 0.9995 -4.6407 30.2839)" class="st12" cx="1005" cy="169.5" rx="116.1" ry="38.8"/>
<path class="st3" d="M1010.2,155.9L1010.2,155.9c14.1,0,27.4,1.7,37.4,4.7c10,3,13.1,6.4,13.5,7.3c-0.4,1-3.6,4.9-14.8,8.7
	c-11,3.8-25.5,6.1-40.9,6.5c-1.9,0.1-3.7,0.1-5.6,0.1c-14.2,0-27.4-1.7-37.4-4.7c-10-3-13.1-6.4-13.5-7.3c0.4-1,3.6-4.9,14.8-8.7
	c11-3.8,25.5-6.1,40.9-6.5C1006.5,155.9,1008.3,155.9,1010.2,155.9L1010.2,155.9 M1010.2,148.1c-1.9,0-3.8,0-5.8,0.1
	c-35.2,1.1-63.5,11.5-63.2,23.2c0.3,11.1,26.1,17.9,58.6,17.9c1.9,0,3.8,0,5.8-0.1c35.2-1.1,63.5-9.9,63.2-21.6
	C1068.5,156.5,1042.7,148.1,1010.2,148.1L1010.2,148.1z"/>
<path class="st3" d="M1012.5,138.4c-2.8,0-5.6,0-8.4,0.1c-51.2,1.5-92.4,16.7-91.9,33.8c0.5,16.2,38,28.3,85.3,28.3
	c2.8,0,5.6,0,8.4-0.1c15.7-0.5,30.5-2.2,43.4-4.9l-4.2-3.6c-11.5,2.1-24.2,3.4-37.4,3.8c-2.8,0.1-5.5,0.1-8.2,0.1
	c-22.3,0-43.8-3.1-59-8.1c-15-4.9-21.5-12.3-21.6-15.7c-0.1-2.7,2.8-5.5,4.6-7c3.9-3.3,10-6.5,17.6-9.3c16.7-6.1,39.1-9.9,63.2-10.6
	c2.8-0.1,5.5-0.1,8.2-0.1c22.3,0,42.9,2.8,58.1,7.8c15,4.9,20.4,10.7,20.5,14.1c0.1,2.7-2.8,5.5-4.6,7c-3.1,2.6-7.5,5.1-12.9,7.4
	l6.9,4.2c11-5.5,17.5-12,17.3-18.8C1097.3,150.5,1059.8,138.4,1012.5,138.4z"/>
<line class="st13" x1="1010.1" y1="186.6" x2="1012" y2="197.3"/>
<line class="st12" x1="894.2" y1="183.1" x2="920.2" y2="179.1"/>
<polygon class="st0" points="956.5,187.8 980,192 977.5,203.1 947,197.3 "/>
<line class="st14" x1="1064.5" y1="147.1" x2="1049.2" y2="156.1"/>
<g>
	<path d="M986.9,132.1l-12.2,4.3c-4.2,1.5-7.3,5.1-8.2,9.5l-1.8,9.3l-4.2,26.8l52.2,4.5l39.6-9.1l-0.5-18c-0.1-1.9-0.4-3.8-1-5.7
		l0,0c-1.2-3.5-3.3-6.5-6.2-8.8c-3.6-2.9-7.7-5.2-12-6.9l-9.6-3.9c0,0-5.2-1.7-6.6-8.8l-4.8,9.5l-7.8,2.8l-13.1,1.3l-3-3.1
		L986.9,132.1z"/>
	<path class="st1" d="M1024.4,96.8c0,0,3.6,16.7-3.3,22.7c0,0-2.6,3-4.5,8.8h-12.4l-1.3-21.1v-4.8l18.9-5.6L1024.4,96.8z"/>
	<path class="st3" d="M982.8,115.5c0.3,1.2,1,2.2,0.1,4.6c-0.9,2.4-3.8,5.6-2.6,6.5c1.2,1,5.1,1,5.6,1c0,0-1.6,0.2-2,1.3
		c-0.1,0.3,0.5,1,1,1c0,0-0.4,0.5-0.2,1.1c0.1,0.3,0.7,0.8,1.2,0.5c0,0,1,4.1,1.8,4.8c0.7,0.7,1.7,1.2,3.8,1.1
		c0.9-0.1,2.3-0.2,3.2-0.4c0.8-0.1,1.9-0.1,2.3,0.8c0.6,1.2,1.1,2.3,1.1,2.3s12.5-2.3,15.5-6.2c3.1-4,3.4-4.8,3.4-13.5
		c0,0,0.6-2.1,0.7-4.6c0.1-2.5-1.7-3.8-3.1-3.1c-1.5,0.6-4.5,1.7-4.8,7.4l-3.6,2c0,0,4-9.6-6.2-21.8c0,0-6.4,1.9-10.3,1.5
		s-8.3-1.9-8.9-2.2c-0.9-0.5-0.9-0.4-0.9-0.4s0.8,5.7,0.6,7.9c-0.1,1.2,0,2.3,0.5,3.4C981.1,110.5,982.3,113.8,982.8,115.5z"/>
	<g>
		<path class="st4" d="M985.7,127.6h-3.9c-1,0-1.8-0.8-1.8-1.8l0,0c0-1.3,1.1-2.4,2.4-2.4h3.3c1,0,1.8,0.8,1.8,1.8v0.6
			C987.5,126.8,986.7,127.6,985.7,127.6z"/>
		<polygon class="st4" points="981.7,112 980,125.5 985,123.8 984.3,112 		"/>
	</g>
	<path class="st5" d="M985.3,131.5l13.4-6l-5.6-28.7l11.5,1.6l5.2,21.7c0,0,2.2,8.9-7.1,17c-3,2.6-9.1,4.7-15.7,2.8L985.3,131.5z"/>
	<circle class="st5" cx="985.7" cy="129.6" r="2"/>
	<path class="st5" d="M987.3,128.3c0,0,1.1,1.7,3.6,0.7c2.1-0.8,5.5,3.8,5.5,3.8l-7.6,1.9l-2.8-3.8L987.3,128.3z"/>
	<path class="st1" d="M1017.1,120.4c0,0-0.7,1.6-0.7,2.7c0,0.8,0.6,4.1,0.3,5.3c-0.3,1.2,1.9-6.3,1.9-6.3L1017.1,120.4z"/>
	<circle class="st11" cx="991.2" cy="120.4" r="3.3"/>
	<path class="st1" d="M980,102.5c0,0-2.2-8,0.6-11.2c2-2.2,8.5-6.5,20.8-6.6c12.3,0,19.2,1,22.9,12c0.3,1-8.8,12.6-8.8,12.6
		l-7.1-8.4C1008.6,100.9,994,107.6,980,102.5z"/>
</g>
<path class="st3" d="M1056.4,164.2c3.2,1.7,4.4,3.2,4.7,3.7c-0.4,1-3.6,4.9-14.8,8.7c-11,3.8-25.5,6.1-40.9,6.5
	c-1.9,0.1-3.7,0.1-5.6,0.1c-14.2,0-27.4-1.7-37.4-4.7c-10-3-13.1-6.4-13.5-7.3c0.4-1,3.6-4.9,14.8-8.7l-1.8-7.6
	c-12.9,4.3-20.9,10.2-20.8,16.5c0.3,11.1,26.2,17.7,58.8,17.7c1.9,0,3.8,0,5.8-0.1c35.2-1.1,63.4-9.7,63-21.5
	c-0.1-3.6-2.9-7-7.8-9.8L1056.4,164.2z"/>
<polygon class="st0" points="938.3,164.4 960.6,165.4 959.3,173.1 938.3,178.9 "/>
</svg>
